<?xml version="1.0" encoding="UTF-8"?>
<svg width="1601.50028px" height="940px" viewBox="0 0 1601.50028 940" version="1.1" xmlns="http://www.w3.org/2000/svg" xmlns:xlink="http://www.w3.org/1999/xlink">
    <defs>
        <linearGradient x1="50%" y1="0%" x2="50%" y2="100%" id="linearGradient-1">
            <stop stop-color="#FFFFFF" stop-opacity="0.4" offset="0%"></stop>
            <stop stop-color="#DFE7D2" stop-opacity="0.4" offset="100%"></stop>
        </linearGradient>
        <rect id="path-2" x="0" y="0" width="1600" height="940"></rect>
        <linearGradient x1="50%" y1="0%" x2="50%" y2="100%" id="linearGradient-4">
            <stop stop-color="#FFFFFF" offset="0%"></stop>
            <stop stop-color="#FFFFFF" stop-opacity="0.0699847028" offset="100%"></stop>
        </linearGradient>
        <rect id="path-5" x="0" y="0" width="1600" height="940"></rect>
        <radialGradient cx="50%" cy="50%" fx="50%" fy="50%" r="113.333333%" gradientTransform="translate(0.5, 0.5), scale(0.4412, 1), scale(1, 0.4036), translate(-0.5, -0.5)" id="radialGradient-7">
            <stop stop-color="#76765D" stop-opacity="0.9" offset="0%"></stop>
            <stop stop-color="#76765D" stop-opacity="0.114592439" offset="100%"></stop>
        </radialGradient>
        <radialGradient cx="50%" cy="50%" fx="50%" fy="50%" r="116.666667%" gradientTransform="translate(0.5, 0.5), scale(0.4286, 1), scale(1, 0.4036), translate(-0.5, -0.5)" id="radialGradient-8">
            <stop stop-color="#76765D" stop-opacity="0.9" offset="0%"></stop>
            <stop stop-color="#76765D" stop-opacity="0.114592439" offset="100%"></stop>
        </radialGradient>
        <radialGradient cx="50%" cy="50%" fx="50%" fy="50%" r="115%" gradientTransform="translate(0.5, 0.5), scale(0.4348, 1), scale(1, 0.4036), translate(-0.5, -0.5)" id="radialGradient-9">
            <stop stop-color="#76765D" stop-opacity="0.9" offset="0%"></stop>
            <stop stop-color="#76765D" stop-opacity="0.114592439" offset="100%"></stop>
        </radialGradient>
    </defs>
    <g id="assets" stroke="none" stroke-width="1" fill="none" fill-rule="evenodd">
        <g id="admin-assets" transform="translate(-56.4997, -449)">
            <g id="bg-cycle4lisbon" transform="translate(58, 449)">
                <rect id="Rectangle" fill="url(#linearGradient-1)" x="0" y="0" width="1600" height="940"></rect>
                <g id="Group-5">
                    <mask id="mask-3" fill="white">
                        <use xlink:href="#path-2"></use>
                    </mask>
                    <g id="Rectangle"></g>
                    <path d="M71.3773021,971 L539.912123,976.062653 C550.956898,976.182021 557.65458,988.290114 551.881207,997.700335 L340.502519,1342.21859 C336.454759,1348.81228 327.869355,1350.95808 321.188737,1347.05018 L98.9592364,1216.86029 C95.2893762,1214.7145 92.7753992,1211.03397 92.1070531,1206.83476 L57.1799236,987.443166 C55.7963049,978.751998 62.5707751,970.905647 71.3773021,971 Z M1648.90609,877.49464 L1754.70729,1041.1272 C1760.78455,1050.5266 1754.07469,1062.92672 1742.86552,1063.00475 L637.482854,1071 C631.135493,1071.04922 625.526643,1066.88511 623.739715,1060.81274 L579.583973,910.66069 C576.946228,901.692598 583.567955,892.67343 592.931201,892.480476 L1636.67338,871.003024 C1641.59916,870.901581 1646.23351,873.358194 1648.90609,877.49464 Z M300.502753,567.78473 L511.880904,912.299699 C517.654993,921.709908 510.956595,933.817985 499.91181,933.937354 L31.3773139,939 C22.5707797,939.094353 15.7963039,931.248012 17.1799237,922.556856 L52.1067266,703.164129 C52.7750733,698.96563 55.2891945,695.287236 58.9587022,693.137183 L281.188244,562.953152 C287.868867,559.039574 296.454989,561.187495 300.502753,567.78473 Z M862.831308,571.915901 L916.371089,661.332159 C918.488859,664.865739 922.027951,667.30834 926.078719,668.028301 L1255.65488,726.622932 C1259.49956,727.306576 1262.89652,729.544795 1265.04272,732.812752 L1321.63265,818.924734 C1327.85804,828.394616 1321.07834,841 1309.76461,841 L601.241242,841 C588.545994,841 582.219689,825.590255 591.24011,816.63809 L840.642338,569.124358 C847.19179,562.624051 858.088356,563.994898 862.831308,571.915901 Z M597.455642,355.885629 L826.374086,529.333066 C833.38365,534.644425 833.930884,544.978104 827.521855,550.998922 L529.330754,831.143812 C522.925279,837.161079 512.644395,835.984328 507.767621,828.674552 L331.387859,564.29969 C327.243809,558.087836 328.61971,549.729849 334.536939,545.17198 L580.190069,355.954161 C585.270102,352.040913 592.344339,352.01279 597.455642,355.885629 Z M1748.30421,692.641871 L1708.49722,817.09533 C1706.60807,822.997457 1701.13949,827 1694.97491,827 L1395.105,827 C1389.35944,827 1384.18204,823.524802 1381.98041,818.194263 L1346.09374,731.227267 C1342.44329,722.381569 1348.33089,712.505443 1357.81213,711.558505 L1733.3828,674.072756 C1743.56004,673.056599 1751.43622,682.857798 1748.30421,692.641871 Z M1418.56043,557.401536 L1263.73422,705.068098 C1260.43717,708.216323 1255.81846,709.591239 1251.32055,708.764025 L936.601752,650.820827 C932.615451,650.087019 929.133656,647.692415 927.030367,644.23991 L884.062166,573.640124 C879.450563,566.058625 882.889725,556.16673 891.231823,553.053886 L893.704608,552.129727 C896.021068,551.263593 898.529382,551.015925 900.973745,551.412902 L1131.80258,588.832841 C1133.51506,589.11023 1135.26306,589.073434 1136.96133,588.723159 L1405.84832,533.321751 C1419.82525,530.442424 1428.8637,547.572619 1418.56043,557.401536 Z M1584.95684,570.239438 L1578.81491,649.797769 C1578.29598,656.473864 1573.14927,661.876166 1566.4813,662.745884 L1389.11181,685.868072 C1375.49862,687.642892 1367.51554,671.087818 1377.41798,661.624945 L1480.3237,563.281693 C1482.78331,560.933666 1486.00356,559.541692 1489.40153,559.359115 L1570.01433,555.02114 C1578.59454,554.559743 1585.61795,561.714926 1584.95684,570.239438 Z M231.075917,184 C236.522092,184 241.489958,187.110044 243.865863,192.006995 L366.573582,444.916263 C369.835743,451.639895 367.327646,459.739219 360.835305,463.445846 L56.6846216,637.126057 C49.7964156,641.059243 41.0198518,638.596208 37.1869902,631.654539 L-42.2313528,487.808447 C-43.455907,485.591147 -44.0642751,483.086919 -43.9946255,480.555703 L-36.2073707,197.813736 C-35.995579,190.123498 -29.696552,184 -21.9988467,184 L231.075917,184 Z M1162.6254,496.351298 L1133.84495,557.804687 C1131.11105,563.636562 1124.83375,566.904638 1118.51383,565.780078 L943.736299,534.65629 C931.501232,532.477811 927.751891,516.678304 937.693326,509.187417 L952.449257,498.070249 C954.515655,496.512561 956.965509,495.550691 959.53608,495.288817 L1148.34524,476.076382 C1159.33053,474.958957 1167.32628,486.31231 1162.6254,496.351298 Z M1448.52027,459.43578 L1449.98228,488.600416 C1450.33003,495.57091 1445.5253,501.752998 1438.6624,503.158693 L1187.09152,554.693536 C1175.05484,557.158452 1165.77893,544.26113 1171.9818,533.697205 L1217.94261,455.478197 C1220.45499,451.197474 1225.03971,448.542351 1230.01478,448.481542 L1434.16994,446 C1441.79932,445.908441 1448.13703,451.843048 1448.52027,459.43578 Z M962.557801,425.395667 L878.436117,506.055328 C873.214381,511.061892 865.052317,511.335324 859.502539,506.689097 L819.05994,472.811771 C810.763259,465.862214 813.040418,452.576378 823.17994,448.768111 L947.742805,401.98507 C962.161034,396.571537 973.660191,414.748064 962.557801,425.395667 Z M1030.56703,299.685724 L1015.38665,360.615284 C1014.23749,365.212728 1010.8822,368.936335 1006.44158,370.54718 L792.389051,448.152355 C787.826426,449.806675 782.738162,449.007621 778.897669,446.034114 L655.5337,350.514612 C645.490533,342.738241 649.89568,326.659533 662.490427,325.123044 L1015.09582,282.107668 C1024.97015,280.902825 1032.97887,290.004004 1030.56703,299.685724 Z M1091.11612,286.420373 L1280.19203,333.356426 C1292.1558,336.326036 1294.94071,352.141827 1284.72462,359.057853 L1179.60114,430.191933 C1177.37747,431.695262 1174.77727,432.536869 1172.10602,432.619674 L1030.67917,436.992605 C1018.11153,437.380929 1011.27001,422.386901 1019.76685,413.075685 L1055.0614,374.385811 C1056.75935,372.52778 1057.93157,370.251942 1058.4644,367.789653 L1073.83117,297.229421 C1075.53622,289.380132 1083.35814,284.493242 1091.11612,286.420373 Z M1374.0376,328.236548 L1562.35156,362.903035 C1574.17632,365.079919 1578.11791,379.953514 1568.91138,387.643017 L1526.94842,422.685767 C1524.37998,424.826651 1521.14276,426 1517.7917,426 L1266.25582,426 C1252.17568,426 1246.64749,407.848808 1258.36553,400.085184 L1363.55042,330.375735 C1366.63112,328.333585 1370.39483,327.566134 1374.0376,328.236548 Z M678.504296,244.133505 L465.290379,382.704722 C458.601878,387.051087 449.650024,385.037802 445.463497,378.245292 L364.134784,246.272718 C358.373782,236.924552 364.93374,224.848395 375.906774,224.603219 L670.449402,218.004079 C684.753194,217.683574 690.502834,236.335419 678.504296,244.133505 Z M1136.99734,151 C1139.75221,151 1754.20778,164.816536 1765.22724,167.579274 C1773.12973,169.560185 1830.30028,221.983843 1866.54663,256.053667 C1872.75928,261.897569 1872.41847,271.862934 1865.85791,277.317988 L1770.38197,356.720989 C1767.11589,359.435521 1762.81319,360.545174 1758.65249,359.746401 L1096.53349,232.764928 C1086.08204,230.760519 1081.45984,218.380892 1088.07719,210.025034 C1091.20517,206.073714 1094.456,201.979727 1097.72836,197.874777 L1100.34893,194.590977 C1100.7028,194.148022 1101.05662,193.705349 1101.41024,193.263124 L1102.4704,191.937958 C1119.41975,170.7621 1135.63363,151 1136.99734,151 Z" id="Combined-Shape" fill="#E3DBB2" fill-rule="nonzero" opacity="0.225906808" mask="url(#mask-3)"></path>
                    <mask id="mask-6" fill="white">
                        <use xlink:href="#path-5"></use>
                    </mask>
                    <use id="Rectangle" fill="url(#linearGradient-4)" xlink:href="#path-5"></use>
                </g>
                <path d="M0,841 L32.6718338,674 L137.558878,618 C206.237601,580 240.576962,561 240.576962,561 C240.576962,561 254.041129,554.541686 280.969463,541.625058 C291.74209,538.028587 303.061055,545.820235 314.926356,565 C326.791658,584.179765 344.482872,612.446503 368,649.800212 L462.687504,792.545455 L498.247148,845 C510.506625,862.333333 522.636364,871 534.636364,871 C546.636364,871 736.115886,868.451076 1103.07493,863.353227 C1275.90537,864.710117 1365.8804,863.54706 1373,859.864053 C1380.1196,856.181047 1377.35888,845.226363 1364.71783,827 C1328.21371,764.892439 1307.84685,728.698882 1303.61724,718.419329 C1299.38763,708.139776 1319.7545,680.72679 1364.71783,636.18037 L1439.02986,569 C1461.79306,551.75608 1479.81952,539.75608 1493.10921,533 C1513.04376,522.86588 1544,515.636364 1544,515.636364 C1544,515.636364 1562.66667,513.757576 1600,510" id="Path-2" stroke="#FDDB30" stroke-width="3" stroke-linecap="round" stroke-linejoin="round" stroke-dasharray="10,10"></path>
                <g id="Group-6-Copy-2" transform="translate(1516, 429)" fill-rule="nonzero">
                    <ellipse id="Oval" fill="url(#radialGradient-7)" opacity="0.482259115" cx="29" cy="73.5" rx="17" ry="7.5"></ellipse>
                    <g id="Group-Copy">
                        <path d="M28.5,0 C20.9439505,0.00862560179 13.6998464,3.03291536 8.35692545,8.40936536 C3.01400455,13.7858414 0.00857181545,21.0753868 0,28.6788321 C0,38.9118679 4.69926136,49.7578429 13.6022727,60.0464107 C17.6027141,64.6954679 22.10517,68.8817571 27.0262909,72.5281071 C27.4620818,72.8352286 27.9810409,73 28.5129545,73 C29.0448682,73 29.5638273,72.8352286 29.9996182,72.5281071 C34.9117227,68.8804536 39.4053955,64.6939036 43.3977273,60.0464107 C52.2876545,49.7578429 57,38.9118679 57,28.6788321 C56.99145,21.0753868 53.9859955,13.7858414 48.6430227,8.40936536 C43.30005,3.03291536 36.0561273,0.00862560179 28.5,0 Z" id="Path" fill="#FDDB30"></path>
                        <g id="Group" transform="translate(7.7727, 16.9464)" fill="#1D2127">
                            <path d="M12.3068182,0 C12.7675687,0 13.1936457,0.246259332 13.4258045,0.646739556 L16.073,5.214 L25.38,5.214 L23.4946501,1.9604033 C22.9908698,1.09136876 23.6138164,0 24.6136364,0 L31.0909091,0 C32.1216409,0 33.1103003,0.412065119 33.8390633,1.14551162 C34.5677813,1.87895191 34.9772727,2.87362057 34.9772727,3.91071429 C34.9772727,4.63065691 34.397278,5.21428571 33.6818182,5.21428571 C32.9663584,5.21428571 32.3863636,4.63065691 32.3863636,3.91071429 C32.3863636,3.56507334 32.2498308,3.23343046 32.0068429,2.98886796 C31.7640419,2.74450653 31.4344681,2.60714286 31.0909091,2.60714286 L26.8651364,2.60714286 L28.7084059,5.78490373 C28.7397222,5.83116787 28.7681566,5.87956559 28.7934493,5.92983539 L30.9363437,9.62690927 C31.790008,9.30251413 32.7153136,9.125 33.6818182,9.125 C37.9745462,9.125 41.4545455,12.6268038 41.4545455,16.9464286 C41.4545455,21.2660533 37.9745462,24.7678571 33.6818182,24.7678571 C29.3890902,24.7678571 25.9090909,21.2660533 25.9090909,16.9464286 C25.9090909,14.5341403 26.9943802,12.3769016 28.7004258,10.9421561 L26.891,7.821 L17.584,7.821 L22.4939863,16.2895967 C22.8544858,16.9114679 22.6457411,17.7096678 22.027742,18.0724261 C21.4097429,18.4351843 20.6165132,18.2251317 20.2560137,17.6032604 L15.208,8.894 L13.3339875,11.4821576 C14.7022605,12.8920127 15.5454545,14.8201403 15.5454545,16.9464286 C15.5454545,21.2660615 12.065473,24.7678571 7.77272727,24.7678571 C3.47998154,24.7678571 0,21.2660615 0,16.9464286 C0,12.6267956 3.47998154,9.125 7.77272727,9.125 C9.01983563,9.125 10.1983474,9.42054856 11.2428644,9.94583704 L13.784,6.438 L11.5632273,2.60714286 L7.77272727,2.60714286 C7.13676302,2.60714286 6.60783286,2.14600405 6.49814423,1.53789004 L6.47727273,1.30357143 C6.47727273,0.583628808 7.05726748,0 7.77272727,0 L12.3068182,0 Z M33.6818182,11.7321429 C33.1928623,11.7321429 32.7197225,11.800292 32.2712675,11.9276659 L34.8008045,16.2895967 C35.1613039,16.9114679 34.9525593,17.7096678 34.3345602,18.0724261 C33.7165611,18.4351843 32.9233313,18.2251317 32.5628319,17.6032604 L30.0341839,13.2429009 C29.0867915,14.1877779 28.5,15.4981564 28.5,16.9464286 C28.5,19.8261681 30.8200098,22.1607143 33.6818182,22.1607143 C36.5436266,22.1607143 38.8636364,19.8261681 38.8636364,16.9464286 C38.8636364,14.066689 36.5436266,11.7321429 33.6818182,11.7321429 Z M7.77272727,11.7321429 C4.91090272,11.7321429 2.59090909,14.0666792 2.59090909,16.9464286 C2.59090909,19.8261779 4.91090272,22.1607143 7.77272727,22.1607143 C10.6345518,22.1607143 12.9545455,19.8261779 12.9545455,16.9464286 C12.9545455,15.6887866 12.5120677,14.5351296 11.7752201,13.6344953 L8.81943897,17.7144915 C8.44472948,18.2315626 7.76280978,18.3899071 7.20989201,18.1207893 L7.00944679,17.9996986 C6.43136388,17.5755092 6.3044674,16.7600706 6.72601558,16.1783656 L9.68281515,12.0978265 C9.09174748,11.8618484 8.44728928,11.7321429 7.77272727,11.7321429 Z" id="Combined-Shape"></path>
                        </g>
                    </g>
                </g>
                <g id="Group-6" transform="translate(522, 773)" fill-rule="nonzero">
                    <ellipse id="Oval" fill="url(#radialGradient-8)" opacity="0.482259115" cx="29.5" cy="73.5" rx="17.5" ry="7.5"></ellipse>
                    <g id="Group-Copy">
                        <path d="M29,0 C21.3113882,0.00874376071 13.9401945,3.07446214 8.50353818,8.52456214 C3.06688182,13.9746886 0.00872219818,21.3640907 0,29.0716929 C0,39.4449071 4.78170455,50.4394571 13.8409091,60.8689643 C17.9115336,65.5817071 22.49298,69.8253429 27.5004364,73.5216429 C27.9438727,73.8329714 28.4719364,74 29.0131818,74 C29.5544273,74 30.0824909,73.8329714 30.5259273,73.5216429 C35.5242091,69.8240214 40.0967182,65.5801214 44.1590909,60.8689643 C53.2049818,50.4394571 58,39.4449071 58,29.0716929 C57.9913,21.3640907 54.9331182,13.9746886 49.4964091,8.52456214 C44.0597,3.07446214 36.6886909,0.00874376071 29,0 Z" id="Path" fill="#FDDB30"></path>
                        <g id="Group" transform="translate(7.9091, 17.1786)" fill="#1D2127">
                            <path d="M12.5227273,0 C12.9915611,0 13.4251131,0.249632747 13.6613449,0.655599002 L16.355,5.285 L25.825,5.285 L23.9068369,1.98725814 C23.3942184,1.10631901 24.0280939,0 25.0454545,0 L31.6363636,0 C32.6851785,0 33.6911828,0.417709846 34.4327311,1.16120356 C35.1742336,1.90469098 35.5909091,2.91298524 35.5909091,3.96428571 C35.5909091,4.69409056 35.000739,5.28571429 34.2727273,5.28571429 C33.5447156,5.28571429 32.9545455,4.69409056 32.9545455,3.96428571 C32.9545455,3.61390996 32.8156173,3.27772403 32.5683665,3.02981136 C32.3213058,2.78210251 31.98595,2.64285714 31.6363636,2.64285714 L27.3364545,2.64285714 L29.2148843,5.86831958 C29.2435167,5.9108055 29.2697492,5.9550504 29.2933866,6.00085877 L31.4793255,9.75869432 C32.3479,9.42991285 33.2893566,9.25 34.2727273,9.25 C38.6407663,9.25 42.1818182,12.7997737 42.1818182,17.1785714 C42.1818182,21.5573691 38.6407663,25.1071429 34.2727273,25.1071429 C29.9046883,25.1071429 26.3636364,21.5573691 26.3636364,17.1785714 C26.3636364,14.7328664 27.4683015,12.5457835 29.2047336,11.0913856 L27.364,7.928 L17.893,7.928 L22.8886176,16.5127419 C23.2554417,17.1431319 23.0430348,17.952266 22.4141936,18.3199935 C21.7853525,18.6877211 20.9782064,18.474791 20.6113824,17.844401 L15.475,9.016 L13.5673726,11.6388886 C14.9599712,13.0681061 15.8181818,15.0228749 15.8181818,17.1785714 C15.8181818,21.5573774 12.277148,25.1071429 7.90909091,25.1071429 C3.54103385,25.1071429 0,21.5573774 0,17.1785714 C0,12.7997654 3.54103385,9.25 7.90909091,9.25 C9.17798143,9.25 10.3770826,9.5495514 11.4398641,10.0819594 L14.026,6.526 L11.7660909,2.64285714 L7.90909091,2.64285714 C7.26196938,2.64285714 6.72375975,2.17540136 6.61214676,1.55895703 L6.59090909,1.32142857 C6.59090909,0.591623723 7.18107919,0 7.90909091,0 L12.5227273,0 Z M34.2727273,11.8928571 C33.7750769,11.8928571 33.2935274,11.9619722 32.8371098,12.0911492 L35.4113449,16.5127419 C35.7781689,17.1431319 35.5657621,17.952266 34.9369209,18.3199935 C34.3080797,18.6877211 33.5009336,18.474791 33.1341096,17.844401 L30.562045,13.4233712 C29.5974765,14.3812625 29,15.7099799 29,17.1785714 C29,20.0977594 31.3607117,22.4642857 34.2727273,22.4642857 C37.1847428,22.4642857 39.5454545,20.0977594 39.5454545,17.1785714 C39.5454545,14.2593834 37.1847428,11.8928571 34.2727273,11.8928571 Z M7.90909091,11.8928571 C4.99705891,11.8928571 2.63636364,14.2593735 2.63636364,17.1785714 C2.63636364,20.0977694 4.99705891,22.4642857 7.90909091,22.4642857 C10.8211229,22.4642857 13.1818182,20.0977694 13.1818182,17.1785714 C13.1818182,15.9039789 12.7317736,14.7347501 11.9822924,13.8218654 L8.97416597,17.9571558 C8.59288263,18.48131 7.89899942,18.6418236 7.33638134,18.3690193 L7.13241954,18.2462698 C6.54419482,17.8162696 6.41507209,16.9896606 6.84401585,16.3999871 L9.85286144,12.2636187 C9.25137709,12.0243645 8.5955529,11.8928571 7.90909091,11.8928571 Z" id="Combined-Shape"></path>
                        </g>
                    </g>
                </g>
                <g id="Group-6-Copy" transform="translate(70, 582)" fill-rule="nonzero">
                    <ellipse id="Oval" fill="url(#radialGradient-9)" opacity="0.482259115" cx="19.5" cy="49" rx="11.5" ry="5"></ellipse>
                    <g id="Group-Copy">
                        <path d="M19,0 C13.9626336,0.0057897875 9.13323091,2.0357925 5.57128364,5.6446425 C2.00933636,9.25351 0.00571454364,14.1464925 0,19.250175 C0,26.118925 3.13284091,33.3991 9.06818182,40.305125 C11.7351427,43.425725 14.73678,46.2357 18.0175273,48.68325 C18.3080545,48.8894 18.6540273,49 19.0086364,49 C19.3632455,49 19.7092182,48.8894 19.9997455,48.68325 C23.2744818,46.234825 26.2702636,43.424675 28.9318182,40.305125 C34.8584364,33.3991 38,26.118925 38,19.250175 C37.9943,14.1464925 35.9906636,9.25351 32.4286818,5.6446425 C28.8667,2.0357925 24.0374182,0.0057897875 19,0 Z" id="Path" fill="#FDDB30"></path>
                        <g id="Group" transform="translate(5.1818, 11.375)" fill="#1D2127">
                            <path d="M8.20454545,0 C8.51171246,0 8.79576377,0.16529736 8.95053632,0.434112853 L10.715,3.5 L16.921,3.5 L15.6631,1.31588715 C15.3272465,0.732562589 15.7425443,0 16.4090909,0 L20.7272727,0 C21.4144273,0 22.0735335,0.276591655 22.5593755,0.76890506 C23.0451875,1.2612143 23.3181818,1.9288686 23.3181818,2.625 C23.3181818,3.10824916 22.9315186,3.5 22.4545455,3.5 C21.9775723,3.5 21.5909091,3.10824916 21.5909091,2.625 C21.5909091,2.39299443 21.4998872,2.17038483 21.3378953,2.00622644 C21.1760279,1.84220301 20.956312,1.75 20.7272727,1.75 L17.9100909,1.75 L19.1497787,3.89954244 C19.1667959,3.92612866 19.1824274,3.95370972 19.1965696,3.98218062 L20.6242699,6.4618824 C21.1933681,6.24414763 21.8102244,6.125 22.4545455,6.125 C25.3163641,6.125 27.6363636,8.47552584 27.6363636,11.375 C27.6363636,14.2744742 25.3163641,16.625 22.4545455,16.625 C19.5927268,16.625 17.2727273,14.2744742 17.2727273,11.375 C17.2727273,9.75570724 17.9963299,8.30763023 19.1337975,7.34458228 L17.928,5.25 L11.723,5.25 L14.9959909,10.9341129 C15.2363238,11.3515333 15.0971607,11.8873113 14.6851613,12.1308065 C14.273162,12.3743018 13.7443421,12.2333076 13.5040091,11.8158871 L10.138,5.971 L8.88913383,7.70700338 C9.80142845,8.65336197 10.3636364,9.9476657 10.3636364,11.375 C10.3636364,14.2744797 8.04364867,16.625 5.18181818,16.625 C2.31998769,16.625 0,14.2744797 0,11.375 C0,8.47552034 2.31998769,6.125 5.18181818,6.125 C6.01306024,6.125 6.79858922,6.32330389 7.49483207,6.6757648 L9.189,4.322 L7.70881818,1.75 L5.18181818,1.75 C4.75784201,1.75 4.40522191,1.44046847 4.33209616,1.03228236 L4.31818182,0.875 C4.31818182,0.391750844 4.70484499,0 5.18181818,0 L8.20454545,0 Z M22.4545455,7.875 C22.1285259,7.875 21.8130535,7.92075772 21.5140435,8.00628006 L23.2005363,10.9341129 C23.4408693,11.3515333 23.3017062,11.8873113 22.8897068,12.1308065 C22.4777074,12.3743018 21.9488876,12.2333076 21.7085546,11.8158871 L20.0235701,8.88828657 C19.3915168,9.52257815 19,10.4024715 19,11.375 C19,13.3079758 20.5466732,14.875 22.4545455,14.875 C24.3624177,14.875 25.9090909,13.3079758 25.9090909,11.375 C25.9090909,9.44202416 24.3624177,7.875 22.4545455,7.875 Z M5.18181818,7.875 C3.27393515,7.875 1.72727273,9.44201757 1.72727273,11.375 C1.72727273,13.3079824 3.27393515,14.875 5.18181818,14.875 C7.08970122,14.875 8.63636364,13.3079824 8.63636364,11.375 C8.63636364,10.5307899 8.34135088,9.75638452 7.85007787,9.15183679 L5.87962598,11.8905491 C5.62981966,12.2376242 5.17520652,12.3439102 4.80659467,12.1632695 L4.67296452,12.0819895 C4.28757592,11.7972596 4.20297827,11.2499104 4.48401038,10.8594509 L6.45544634,8.12055385 C6.06133671,7.9620974 5.63161606,7.875 5.18181818,7.875 Z" id="Combined-Shape"></path>
                        </g>
                    </g>
                </g>
            </g>
        </g>
    </g>
</svg>