<?xml version="1.0" encoding="UTF-8"?>
<svg width="300px" height="175.058325px" viewBox="0 0 300 175.058325" version="1.1" xmlns="http://www.w3.org/2000/svg" xmlns:xlink="http://www.w3.org/1999/xlink">
    <title>logo-cycle4lisbon</title>
    <g id="assets" stroke="none" stroke-width="1" fill="none" fill-rule="evenodd">
        <g id="admin-assets" transform="translate(-558, -108)" fill-rule="nonzero">
            <g id="logo-cycle4lisbon" transform="translate(558, 108)">
                <path d="M18.0162941,111.029828 C14.2717311,111.029828 11.057059,110.234992 8.37227787,108.645319 C5.68749678,107.02032 3.62092186,104.777115 2.17255312,101.915703 C0.724184373,99.0189657 0,95.6806524 0,91.9007632 C0,88.120874 0.724184373,84.7825607 2.17255312,81.8858232 C3.62092186,78.9890857 5.68749678,76.7282174 8.37227787,75.1032184 C11.057059,73.4782193 14.2717311,72.6657197 18.0162941,72.6657197 C22.4673786,72.6657197 26.1059635,73.7784908 28.9320488,76.0040331 C31.7934603,78.1942492 33.5774266,81.2852801 34.283948,85.2771256 L26.8124848,85.2771256 C26.353246,83.2635398 25.3641161,81.6915298 23.8450952,80.5610957 C22.3614004,79.3953355 20.3831406,78.8124554 17.9103159,78.8124554 C14.4836875,78.8124554 11.7989064,79.9782156 9.85597268,82.309736 C7.913039,84.6412564 6.94157216,87.8382655 6.94157216,91.9007632 C6.94157216,95.9632609 7.913039,99.16027 9.85597268,101.49179 C11.7989064,103.787985 14.4836875,104.936082 17.9103159,104.936082 C20.3831406,104.936082 22.3614004,104.406191 23.8450952,103.346409 C25.3641161,102.251301 26.353246,100.749943 26.8124848,98.8423353 L34.283948,98.8423353 C33.5774266,102.657551 31.7934603,105.642603 28.9320488,107.797493 C26.1059635,109.952383 22.4673786,111.029828 18.0162941,111.029828 Z M50.6137536,110.393959 L50.6137536,97.1996732 L38.161315,73.3015889 L45.8447346,73.3015889 L54.0580451,90.4170684 L62.2183666,73.3015889 L69.795808,73.3015889 L57.3963585,97.1996732 L57.3963585,110.393959 L50.6137536,110.393959 Z M91.2074891,111.029828 C87.462926,111.029828 84.2482539,110.234992 81.5634728,108.645319 C78.8786918,107.02032 76.8121168,104.777115 75.3637481,101.915703 C73.9153794,99.0189657 73.191195,95.6806524 73.191195,91.9007632 C73.191195,88.120874 73.9153794,84.7825607 75.3637481,81.8858232 C76.8121168,78.9890857 78.8786918,76.7282174 81.5634728,75.1032184 C84.2482539,73.4782193 87.462926,72.6657197 91.2074891,72.6657197 C95.6585736,72.6657197 99.2971585,73.7784908 102.123244,76.0040331 C104.984655,78.1942492 106.768622,81.2852801 107.475143,85.2771256 L100.00368,85.2771256 C99.5444409,83.2635398 98.5553111,81.6915298 97.0362902,80.5610957 C95.5525954,79.3953355 93.5743356,78.8124554 91.1015109,78.8124554 C87.6748824,78.8124554 84.9901013,79.9782156 83.0471677,82.309736 C81.104234,84.6412564 80.1327671,87.8382655 80.1327671,91.9007632 C80.1327671,95.9632609 81.104234,99.16027 83.0471677,101.49179 C84.9901013,103.787985 87.6748824,104.936082 91.1015109,104.936082 C93.5743356,104.936082 95.5525954,104.406191 97.0362902,103.346409 C98.5553111,102.251301 99.5444409,100.749943 100.00368,98.8423353 L107.475143,98.8423353 C106.768622,102.657551 104.984655,105.642603 102.123244,107.797493 C99.2971585,109.952383 95.6585736,111.029828 91.2074891,111.029828 Z M116.128925,110.393959 L116.128925,73.3015889 L122.91153,73.3015889 L122.91153,105.095049 L139.338151,105.095049 L139.338151,110.393959 L116.128925,110.393959 Z M147.963231,110.393959 L147.963231,73.3015889 L172.17925,73.3015889 L172.17925,78.7594663 L154.745836,78.7594663 L154.745836,88.9333736 L170.589577,88.9333736 L170.589577,94.2322836 L154.745836,94.2322836 L154.745836,104.936082 L172.17925,104.936082 L172.17925,110.393959 L147.963231,110.393959 Z M196.523326,110.393959 L196.523326,73.3015889 L220.4744,73.3015889 L220.4744,78.7594663 L203.305931,78.7594663 L203.305931,89.14533 L217.189075,89.14533 L217.189075,94.4972291 L203.305931,94.4972291 L203.305931,110.393959 L196.523326,110.393959 Z M245.738057,111.029828 C242.02882,111.029828 238.778822,110.217329 235.988063,108.59233 C233.23263,106.967331 231.060076,104.724125 229.470403,101.862714 C227.916056,98.9659766 227.138883,95.6276633 227.138883,91.8477741 C227.138883,88.0678849 227.916056,84.7472346 229.470403,81.8858232 C231.060076,78.9890857 233.23263,76.7282174 235.988063,75.1032184 C238.778822,73.4782193 242.02882,72.6657197 245.738057,72.6657197 C249.411968,72.6657197 252.644303,73.4782193 255.435063,75.1032184 C258.225822,76.7282174 260.398375,78.9890857 261.952722,81.8858232 C263.507069,84.7472346 264.284242,88.0678849 264.284242,91.8477741 C264.284242,95.6276633 263.507069,98.9659766 261.952722,101.862714 C260.398375,104.724125 258.225822,106.967331 255.435063,108.59233 C252.644303,110.217329 249.411968,111.029828 245.738057,111.029828 Z M245.738057,104.936082 C249.270664,104.936082 252.079086,103.770322 254.163324,101.438801 C256.282888,99.1072808 257.34267,95.9102718 257.34267,91.8477741 C257.34267,87.7852764 256.282888,84.5882673 254.163324,82.2567469 C252.079086,79.9252265 249.270664,78.7594663 245.738057,78.7594663 C242.205451,78.7594663 239.379365,79.9252265 237.259801,82.2567469 C235.140237,84.5882673 234.080455,87.7852764 234.080455,91.8477741 C234.080455,95.9102718 235.140237,99.1072808 237.259801,101.438801 C239.379365,103.770322 242.205451,104.936082 245.738057,104.936082 Z M272.92257,110.393959 L272.92257,73.3015889 L286.540768,73.3015889 C289.508158,73.3015889 291.945657,73.8138169 293.853264,74.8382728 C295.796198,75.8274027 297.244567,77.1874563 298.198371,78.9184336 C299.152174,80.6140848 299.629076,82.5040294 299.629076,84.5882673 C299.629076,86.8491356 299.028533,88.9157105 297.827447,90.7879921 C296.661687,92.6602736 294.824731,94.0203272 292.31658,94.8681528 L300,110.393959 L292.210602,110.393959 L285.322019,95.7689675 L279.705175,95.7689675 L279.705175,110.393959 L272.92257,110.393959 Z M279.705175,90.7879921 L286.116856,90.7879921 C288.377724,90.7879921 290.038049,90.240438 291.097831,89.14533 C292.157613,88.0502219 292.687504,86.6018531 292.687504,84.8002237 C292.687504,83.0339204 292.157613,81.6208777 291.097831,80.5610957 C290.073375,79.5013137 288.395387,78.9714227 286.063867,78.9714227 L279.705175,78.9714227 L279.705175,90.7879921 Z M1.21874931,174.422456 L1.21874931,137.330085 L8.00135417,137.330085 L8.00135417,169.123546 L24.4279753,169.123546 L24.4279753,174.422456 L1.21874931,174.422456 Z M33.0536073,174.422456 L33.0536073,137.330085 L39.8362122,137.330085 L39.8362122,174.422456 L33.0536073,174.422456 Z M62.3391376,175.058325 C59.6190304,175.058325 57.2168579,174.599086 55.1326199,173.680608 C53.048382,172.726804 51.4057199,171.384414 50.2046336,169.653437 C49.0035473,167.887133 48.3853412,165.749906 48.3500151,163.241755 L55.5035436,163.241755 C55.5741958,164.972733 56.192402,166.438764 57.3581622,167.639851 C58.5592484,168.805611 60.2019106,169.388491 62.2862589,169.388491 C64.0878883,169.388491 65.518594,168.964578 66.578376,168.116753 C67.638158,167.233601 68.168049,166.067841 68.168049,164.619472 C68.168049,163.100451 67.6911471,161.917028 66.7372329,161.069202 C65.8188656,160.221377 64.5824532,159.532518 63.0281063,159.002627 C61.4737594,158.472736 59.8134342,157.907519 58.0470205,157.306976 C55.185609,156.317846 52.9953929,155.046108 51.476372,153.491761 C49.9926772,151.937414 49.2508298,149.870839 49.2508298,147.292036 C49.2155037,145.10182 49.7277317,143.229538 50.7875137,141.675192 C51.8826218,140.085519 53.3663166,138.866769 55.2385981,138.018944 C57.1108797,137.135792 59.2657698,136.694216 61.7033788,136.694216 C64.1760931,136.694216 66.3486462,137.135792 68.2209278,138.018944 C70.1286458,138.902095 71.6123406,140.138508 72.6721226,141.728181 C73.7672307,143.317854 74.3501108,145.207798 74.4207629,147.398014 L67.1612561,147.398014 C67.1259301,146.09095 66.6135917,144.942853 65.6245722,143.953723 C64.670658,142.929267 63.3282675,142.417039 61.5972902,142.417039 C60.1135954,142.381713 58.8596304,142.752637 57.8351745,143.52981 C56.8459342,144.271657 56.3513693,145.366766 56.3513693,146.815134 C56.3513693,148.051547 56.739956,149.040676 57.5171295,149.782524 C58.2943029,150.489045 59.3540849,151.089588 60.6965859,151.584153 C62.038866,152.078718 63.5755499,152.608609 65.3065272,153.173826 C67.1435931,153.809696 68.8215813,154.551543 70.3406022,155.399369 C71.859623,156.247194 73.0783724,157.377628 73.9967397,158.790671 C74.9153278,160.168388 75.3745667,161.952354 75.3745667,164.14257 C75.3745667,166.085504 74.8800018,167.887133 73.8908719,169.547458 C72.901742,171.207784 71.4357102,172.550174 69.4927766,173.57463 C67.5498429,174.56376 65.1653334,175.058325 62.3391376,175.058325 Z M83.9418003,174.422456 L83.9418003,137.330085 L98.8317375,137.330085 C102.682279,137.330085 105.614342,138.2309 107.627928,140.032529 C109.67684,141.798833 110.700854,144.077364 110.700854,146.868123 C110.700854,149.199644 110.065427,151.071925 108.793688,152.484968 C107.557276,153.862685 106.038255,154.798825 104.236626,155.29339 C106.35619,155.717303 108.10483,156.777085 109.482547,158.472736 C110.859822,160.133062 111.54868,162.075995 111.54868,164.301537 C111.54868,167.233601 110.488898,169.653437 108.369776,171.561044 C106.250212,173.468652 103.247496,174.422456 99.3616285,174.422456 L83.9418003,174.422456 Z M90.7244052,152.908881 L97.8249446,152.908881 C99.7325522,152.908881 101.198584,152.467305 102.22304,151.584153 C103.247496,150.701002 103.759724,149.446926 103.759724,147.821927 C103.759724,146.26758 103.247496,145.048831 102.22304,144.165679 C101.23391,143.247202 99.7325522,142.787963 97.7189664,142.787963 L90.7244052,142.787963 L90.7244052,152.908881 Z M90.7244052,168.911589 L98.3018465,168.911589 C100.315432,168.911589 101.869779,168.45235 102.964887,167.533873 C104.095322,166.580069 104.660539,165.255341 104.660539,163.55969 C104.660539,161.828713 104.077658,160.468659 102.911898,159.479529 C101.746138,158.490399 100.174128,157.995834 98.1958683,157.995834 L90.7244052,157.995834 L90.7244052,168.911589 Z M137.400737,175.058325 C133.6915,175.058325 130.441502,174.245825 127.650743,172.620826 C124.89531,170.995827 122.722757,168.752622 121.133084,165.89121 C119.578737,162.994473 118.801563,159.65616 118.801563,155.87627 C118.801563,152.096381 119.578737,148.775731 121.133084,145.91432 C122.722757,143.017582 124.89531,140.756714 127.650743,139.131715 C130.441502,137.506716 133.6915,136.694216 137.400737,136.694216 C141.074648,136.694216 144.306984,137.506716 147.097743,139.131715 C149.888502,140.756714 152.061055,143.017582 153.615402,145.91432 C155.169749,148.775731 155.946923,152.096381 155.946923,155.87627 C155.946923,159.65616 155.169749,162.994473 153.615402,165.89121 C152.061055,168.752622 149.888502,170.995827 147.097743,172.620826 C144.306984,174.245825 141.074648,175.058325 137.400737,175.058325 Z M137.400737,168.964578 C140.933344,168.964578 143.741766,167.798818 145.826004,165.467298 C147.945568,163.135777 149.00535,159.938768 149.00535,155.87627 C149.00535,151.813773 147.945568,148.616764 145.826004,146.285243 C143.741766,143.953723 140.933344,142.787963 137.400737,142.787963 C133.868131,142.787963 131.042045,143.953723 128.922481,146.285243 C126.802917,148.616764 125.743135,151.813773 125.743135,155.87627 C125.743135,159.938768 126.802917,163.135777 128.922481,165.467298 C131.042045,167.798818 133.868131,168.964578 137.400737,168.964578 Z M164.584146,174.422456 L164.584146,137.330085 L171.366751,137.330085 L188.800165,163.453712 L188.800165,137.330085 L195.58277,137.330085 L195.58277,174.422456 L188.800165,174.422456 L171.366751,148.351818 L171.366751,174.422456 L164.584146,174.422456 Z" id="Shape" fill="#1D2127"></path>
                <g id="Group" transform="translate(6.447, 0)">
                    <path d="M31.3608263,9.1998793 C32.3182731,8.22473634 32.9131862,6.87793004 32.9131862,5.39124355 C32.9131862,2.41386327 30.533534,0 27.598269,0 C25.742657,0 24.1115862,0.967146022 23.1620878,2.42985936 C22.909948,2.68563112 1.75305607,29.1382648 1.55606909,29.4419585 C0.59868852,30.4171788 0.00377547341,31.7639851 0.00377547341,33.2506605 C0.00377547341,36.2279856 2.38342766,38.6418599 5.31856017,38.6418599 C7.17428262,38.6418599 8.80535337,37.6746984 9.75485181,36.2119785 C10.0069916,35.9563061 31.1638835,9.5036062 31.3608263,9.1998793 Z" id="Path" fill="#1D2127"></path>
                    <path d="M43.6021917,21.7488243 C44.5635023,20.7736041 45.1584153,19.4267978 45.1584153,17.9361481 C45.1584153,14.9588231 42.7787631,12.5449487 39.8436086,12.5449487 C37.9878861,12.5449487 36.3568154,13.5121102 35.4034531,14.9747198 C35.1473391,15.2345872 24.0369599,29.1262318 23.8360429,29.4340102 C22.8747323,30.40912 22.2798192,31.7559263 22.2798192,33.2466863 C22.2798192,36.2240114 24.6594714,38.6378857 27.594626,38.6378857 C29.4503485,38.6378857 31.0814192,37.6707243 32.0348919,36.2080043 C32.2910058,35.9482473 43.4012747,22.0564923 43.6021917,21.7488243 Z" id="Path" fill="#FDDB30"></path>
                    <path d="M55.1968692,5.39124355 C55.1968692,8.36861279 52.817217,10.7824761 49.8820625,10.7824761 C46.9469079,10.7824761 44.5672557,8.36861279 44.5672557,5.39124355 C44.5672557,2.41386327 46.9469079,0 49.8820625,0 C52.817217,0 55.1968692,2.41386327 55.1968692,5.39124355 Z" id="Path" fill="#1D2127"></path>
                    <path d="M10.6296135,5.39124355 C10.6296135,8.36861279 8.24996136,10.7824761 5.31480677,10.7824761 C2.37965219,10.7824761 0,8.36861279 0,5.39124355 C0,2.41386327 2.37965219,0 5.31480677,0 C8.24996136,0 10.6296135,2.41386327 10.6296135,5.39124355 Z" id="Path" fill="#FDDB30"></path>
                </g>
            </g>
        </g>
    </g>
</svg>