<?xml version="1.0" encoding="UTF-8"?>
<svg width="20px" height="20px" viewBox="0 0 20 20" version="1.1" xmlns="http://www.w3.org/2000/svg" xmlns:xlink="http://www.w3.org/1999/xlink">
    <g id="assets" stroke="none" stroke-width="1" fill="none" fill-rule="evenodd">
        <g id="admin-assets" transform="translate(-230, -698.0351)" fill="#FFFFFF" fill-rule="nonzero">
            <path d="M232.928932,700.96402 C236.834175,697.058777 243.165825,697.058777 247.071068,700.96402 C250.976311,704.869263 250.976311,711.200913 247.071068,715.106156 C243.165825,719.011398 236.834175,719.011398 232.928932,715.106156 C229.023689,711.200913 229.023689,704.869263 232.928932,700.96402 Z M240,699.36844 C235.221219,699.36844 231.333352,703.256306 231.333352,708.035088 C231.333352,712.813869 235.221219,716.701735 240,716.701735 C244.778781,716.701735 248.666648,712.813869 248.666648,708.035088 C248.666648,703.256306 244.778781,699.36844 240,699.36844 Z M243.836283,703.256015 L244.779115,704.198804 L241.122289,707.855588 L244.779115,711.512413 L243.836283,712.455203 L240.1795,708.798419 L236.522716,712.455203 L235.579885,711.512413 L239.23671,707.855588 L235.579885,704.198804 L236.522716,703.256015 L240.1795,706.912799 L243.836283,703.256015 Z" id="reject-icon"></path>
        </g>
    </g>
</svg>