<?xml version="1.0" encoding="UTF-8"?>
<svg width="20px" height="20px" viewBox="0 0 20 20" version="1.1" xmlns="http://www.w3.org/2000/svg" xmlns:xlink="http://www.w3.org/1999/xlink">
    <g id="assets" stroke="none" stroke-width="1" fill="none" fill-rule="evenodd">
        <g id="admin-assets" transform="translate(-79, -699.0351)" fill="#FFFFFF" fill-rule="nonzero">
            <path d="M81.9289322,701.96402 C85.8341751,698.058777 92.1658249,698.058777 96.0710678,701.96402 C99.9763107,705.869263 99.9763107,712.200913 96.0710678,716.106156 C92.1658249,720.011398 85.8341751,720.011398 81.9289322,716.106156 C78.0236893,712.200913 78.0236893,705.869263 81.9289322,701.96402 Z M89,700.375415 C84.2250544,700.375415 80.3403273,704.260142 80.3403273,709.035088 C80.3403273,713.810033 84.2251381,717.69476 89,717.69476 C93.7749456,717.69476 97.6596727,713.810033 97.6596727,709.035088 C97.6596727,704.260142 93.7749456,700.375415 89,700.375415 Z M93.5609146,705.063869 L94.5086827,706.011595 L87.4929866,713.027249 L83.4703749,709.004638 L84.4181012,708.056911 L87.4929866,711.131755 L93.5609146,705.063869 Z" id="approve-icon"></path>
        </g>
    </g>
</svg>