<?xml version="1.0" encoding="UTF-8"?>
<svg width="245px" height="245px" viewBox="0 0 245 245" version="1.1" xmlns="http://www.w3.org/2000/svg" xmlns:xlink="http://www.w3.org/1999/xlink">
    <g id="assets" stroke="none" stroke-width="1" fill="none" fill-rule="evenodd">
        <g id="admin-assets" transform="translate(-577, -922)">
            <g id="placeholder" transform="translate(577, 922)">
                <rect id="Rectangle" fill="#F3F3F3" x="0" y="0" width="245" height="245"></rect>
                <path d="M122.875729,119.114181 C141.196223,119.114181 156.048204,104.262333 156.048204,85.9417058 C156.048204,67.6210786 141.196223,52.7692308 122.875729,52.7692308 C104.555102,52.7692308 89.7032538,67.6210786 89.7032538,85.9417058 C89.7032538,104.262333 104.555102,119.114181 122.875729,119.114181 Z M122.877056,135.700418 C89.6379704,135.700418 62.5692308,157.992322 62.5692308,185.459131 C62.5692308,187.31679 64.0288197,188.776378 65.8864783,188.776378 L179.867368,188.776378 C181.725026,188.776378 183.184615,187.31679 183.184615,185.459131 C183.184615,157.992322 156.115876,135.700418 122.877056,135.700418 L122.877056,135.700418 Z" id="Combined-Shape" fill="#E2E2E2" fill-rule="nonzero"></path>
            </g>
        </g>
    </g>
</svg>