<?xml version="1.0" encoding="UTF-8"?>
<svg width="80px" height="80px" viewBox="0 0 80 80" version="1.1" xmlns="http://www.w3.org/2000/svg" xmlns:xlink="http://www.w3.org/1999/xlink">
    <title>empty-view</title>
    <g id="assets" stroke="none" stroke-width="1" fill="none" fill-rule="evenodd">
        <g id="admin-assets" transform="translate(-1273, -1538)" fill-rule="nonzero">
            <g id="empty-view" transform="translate(1273, 1538)">
                <rect id="Rectangle" fill="#ECF0E7" x="0" y="0" width="80" height="80" rx="40"></rect>
                <path d="M36.9721773,47.2409106 C36.9234773,47.4347106 35.7046773,51.9984106 29.0009673,51.9984106 C28.7357473,51.9984106 28.4813973,51.8931106 28.2938573,51.7055106 C28.1063173,51.5180106 28.0009673,51.2636106 28.0009673,50.9984106 C28.0009673,44.2947106 32.5647173,43.0759106 32.7584673,43.0272106 C33.0158873,42.9629106 33.2883173,43.0034106 33.5158273,43.1400106 C33.7433273,43.2765106 33.9072773,43.4979106 33.9715873,43.7553106 C34.0358773,44.0127106 33.9953273,44.2851106 33.8587773,44.5127106 C33.7222273,44.7402106 33.5008873,44.9041106 33.2434673,44.9684106 C33.1309673,44.9997106 30.4409673,45.7859106 30.0484673,49.9509106 C34.2134773,49.5584106 35.0009773,46.8734106 35.0334773,46.7484106 C35.0997773,46.4913106 35.2654773,46.2711106 35.4941773,46.1362106 C35.7228773,46.0013106 35.9957773,45.9627106 36.2528773,46.0290106 C36.5099773,46.0953106 36.7301773,46.2611106 36.8650773,46.4897106 C36.9999773,46.7184106 37.0384773,46.9913106 36.9721773,47.2484106 L36.9721773,47.2409106 Z M48.5971773,38.8159106 L48.0009773,39.4122106 L48.0009773,46.7034106 C48.0024773,46.9671106 47.9514773,47.2284106 47.8510773,47.4722106 C47.7506773,47.7159106 47.6027773,47.9373106 47.4159773,48.1234106 L43.1259773,52.4109106 C42.9409773,52.5972106 42.7208773,52.7451106 42.4784773,52.8459106 C42.2360773,52.9468106 41.9760773,52.9984111 41.7134773,52.9984111 C41.4967773,52.9984111 41.2814773,52.9633106 41.0759773,52.8947106 C40.7230773,52.7779106 40.4098773,52.5649106 40.1717773,52.2795106 C39.9336773,51.9941106 39.7800773,51.6478106 39.7284773,51.2797106 L39.0571773,46.4684106 L33.5309673,40.9422106 L28.7222173,40.2709106 C28.3536473,40.2192106 28.0068073,40.0657106 27.7207173,39.8277106 C27.4346373,39.5896106 27.2206573,39.2764106 27.1028473,38.9234106 C26.9850373,38.5703106 26.9680673,38.1914106 27.0538573,37.8293106 C27.1396573,37.4671106 27.3247973,37.1361106 27.5884673,36.8734106 L31.8759673,32.5834306 C32.0620573,32.3966606 32.2834373,32.2487606 32.5272173,32.1483306 C32.7709973,32.0479006 33.0323073,31.9969406 33.2959673,31.9984306 L40.5871773,31.9984306 L41.1834773,31.4021806 C44.5184773,28.0684306 48.5371773,27.9246806 50.1096773,28.0184306 C50.5972773,28.0480606 51.0571773,28.2551206 51.4025773,28.6005306 C51.7479773,28.9459506 51.9550773,29.4058406 51.9846773,29.8934306 C52.0759773,31.4621806 51.9321773,35.4809106 48.5984773,38.8159106 L48.5971773,38.8159106 Z M29.0009673,38.2909106 L33.6447173,38.9384106 L38.5871773,33.9984106 L33.2959673,33.9984106 L29.0009673,38.2909106 Z M35.4159773,39.9984106 L40.0009773,44.5834106 L47.1821773,37.4022106 C48.1499773,36.4409106 48.9007773,35.2836106 49.3841773,34.0081106 C49.8675773,32.7326106 50.0723773,31.3684006 49.9846773,30.0071806 C48.6241773,29.9228106 47.2613773,30.1297206 45.9871773,30.6140806 C44.7129773,31.0984406 43.5568773,31.8491006 42.5959773,32.8159306 L35.4159773,39.9984106 Z M46.0009773,41.4122106 L41.0596773,46.3534106 L41.7096773,50.9984106 L46.0009773,46.7034106 L46.0009773,41.4122106 Z" id="Shape" fill="#1D2127"></path>
            </g>
        </g>
    </g>
</svg>