<?xml version="1.0" encoding="UTF-8"?>
<svg width="22.8573px" height="16.0017px" viewBox="0 0 22.8573 16.0017" version="1.1" xmlns="http://www.w3.org/2000/svg" xmlns:xlink="http://www.w3.org/1999/xlink">
    <title>logo-icon</title>
    <g id="assets" stroke="none" stroke-width="1" fill="none" fill-rule="evenodd">
        <g id="admin-assets" transform="translate(-90, -472)" fill-rule="nonzero">
            <g id="logo-icon" transform="translate(90, 472)">
                <path d="M12.9865,3.80968 C13.3829,3.40588 13.6293,2.84816 13.6293,2.23252 C13.6293,0.999586 12.6439,0 11.4284,0 C10.66,0 9.98454,0.400496 9.59135,1.00621 C9.48693,1.11212 0.725845,12.0662 0.644271,12.192 C0.247819,12.5958 0.00146484,13.1535 0.00146484,13.7691 C0.00146484,15.0021 0.986883,16.0017 2.20234,16.0017 C2.97077,16.0017 3.64621,15.6012 4.0394,14.9954 C4.14381,14.8895 12.9049,3.93546 12.9865,3.80968 L12.9865,3.80968 Z" id="Path" fill="#1D2127"></path>
                <path d="M18.0557,9.00616 C18.4538,8.60235 18.7001,8.04464 18.7001,7.42734 C18.7001,6.19441 17.7147,5.19482 16.4992,5.19482 C15.7308,5.19482 15.0554,5.59532 14.6606,6.20103 C14.5545,6.3086 9.95372,12.0612 9.87051,12.1886 C9.47243,12.5924 9.22607,13.1501 9.22607,13.7674 C9.22607,15.0004 10.2115,16 11.427,16 C12.1954,16 12.8708,15.5995 13.2656,14.9937 C13.3717,14.8862 17.9725,9.13359 18.0557,9.00616 L18.0557,9.00616 Z" id="Path" fill="#FDDB30"></path>
                <path d="M22.8573,2.23252 C22.8573,3.46545 21.8719,4.46504 20.6564,4.46504 C19.441,4.46504 18.4556,3.46545 18.4556,2.23252 C18.4556,0.999586 19.441,0 20.6564,0 C21.8719,0 22.8573,0.999586 22.8573,2.23252 Z" id="Path" fill="#1D2127"></path>
                <path d="M4.40175,2.23252 C4.40175,3.46545 3.41633,4.46504 2.20088,4.46504 C0.985419,4.46504 0,3.46545 0,2.23252 C0,0.999586 0.985419,0 2.20088,0 C3.41633,0 4.40175,0.999586 4.40175,2.23252 Z" id="Path" fill="#FDDB30"></path>
            </g>
        </g>
    </g>
</svg>