<?xml version="1.0" encoding="UTF-8"?>
<svg width="180px" height="17.3090111px" viewBox="0 0 180 17.3090111" version="1.1" xmlns="http://www.w3.org/2000/svg" xmlns:xlink="http://www.w3.org/1999/xlink">
    <title>logo</title>
    <g id="assets" stroke="none" stroke-width="1" fill="none" fill-rule="evenodd">
        <g id="admin-assets" transform="translate(-208, -473)" fill-rule="nonzero">
            <g id="logo" transform="translate(208, 473)">
                <g id="Group">
                    <path d="M14.0474745,4.12092425 C14.4762597,3.68412367 14.7427902,3.08084973 14.7427902,2.41491301 C14.7427902,1.08125477 13.6768847,0 12.3620805,0 C11.5309035,0 10.8002596,0.433220156 10.3749467,1.08841561 C10.2619957,1.20297828 0.785145278,13.0519876 0.696906824,13.1880653 C0.268065383,13.624855 0.00158451489,14.2281181 0.00158451489,14.8940116 C0.00158451489,16.2277456 1.06750963,17.3090111 2.38226736,17.3090111 C3.21347676,17.3090111 3.94409904,16.875791 4.36941198,16.2204982 C4.48235209,16.1059463 13.959208,4.25698026 14.0474745,4.12092425 Z" id="Path" fill="#1D2127"></path>
                    <path d="M19.5308194,9.74199093 C19.9614435,9.30514708 20.2278657,8.70187314 20.2278657,8.0341408 C20.2278657,6.70048256 19.1619603,5.61922779 17.847156,5.61922779 C17.0159791,5.61922779 16.2854001,6.05244794 15.8583456,6.7076434 C15.7435774,6.82400168 10.7669217,13.0465791 10.6769136,13.1843875 C10.2463111,13.6211772 9.97982392,14.2244404 9.97982392,14.8921727 C9.97982392,16.2259067 11.0457618,17.3071723 12.3605661,17.3071723 C13.191743,17.3071723 13.922322,16.8739521 14.3493765,16.2186593 C14.4641447,16.1023767 19.4408221,9.87979928 19.5308194,9.74199093 Z" id="Path" fill="#FDDB30"></path>
                    <path d="M24.7247018,2.41491301 C24.7247018,3.74857126 23.6587963,4.82982603 22.3439921,4.82982603 C21.029296,4.82982603 19.9633905,3.74857126 19.9633905,2.41491301 C19.9633905,1.08125477 21.029296,0 22.3439921,0 C23.6587963,0 24.7247018,1.08125477 24.7247018,2.41491301 Z" id="Path" fill="#1D2127"></path>
                    <path d="M4.76136534,2.41491301 C4.76136534,3.74857126 3.69543824,4.82982603 2.38068808,4.82982603 C1.06592494,4.82982603 0,3.74857126 0,2.41491301 C0,1.08125477 1.06592494,0 2.38068808,0 C3.69543824,0 4.76136534,1.08125477 4.76136534,2.41491301 Z" id="Path" fill="#FDDB30"></path>
                </g>
                <path d="M37.0448124,14.2438028 C35.9746883,14.2438028 35.0560019,14.0166461 34.2886452,13.5623329 C33.5213966,13.0979598 32.9307893,12.4568372 32.5168234,11.6390733 C32.1029657,10.8112497 31.8959286,9.85719179 31.8959286,8.77689973 C31.8959286,7.69664012 32.1029657,6.74258225 32.5168234,5.91472612 C32.9307893,5.08686999 33.5213966,4.44072834 34.2886452,3.97632283 C35.0560019,3.51191731 35.9746883,3.27970914 37.0448124,3.27970914 C38.3168895,3.27970914 39.3568342,3.59772843 40.1644302,4.23376701 C40.982194,4.85971335 41.4921066,5.74309306 41.6939515,6.88392777 L39.5586791,6.88392777 C39.4274691,6.30846429 39.1448214,5.85920255 38.7106277,5.53613173 C38.286602,5.20296866 37.7213065,5.03638713 37.0145248,5.03638713 C36.0352634,5.03638713 35.2680148,5.36955019 34.7126709,6.03587633 C34.1574352,6.70220246 33.8797632,7.61588053 33.8797632,8.77689973 C33.8797632,9.93788648 34.1574352,10.851597 34.7126709,11.5179231 C35.2680148,12.1741895 36.0352634,12.5022686 37.0145248,12.5022686 C37.7213065,12.5022686 38.286602,12.3508308 38.7106277,12.0479553 C39.1448214,11.73502 39.4274691,11.3059103 39.5586791,10.7607344 L41.6939515,10.7607344 C41.4921066,11.8510862 40.982194,12.7042216 40.1644302,13.3200325 C39.3568342,13.9358433 38.3168895,14.2438028 37.0448124,14.2438028 Z M46.3608305,14.0620775 L46.3608305,10.2912773 L42.8020432,3.46143445 L44.9978907,3.46143445 L47.3451759,8.35287401 L49.6773174,3.46143445 L51.8428773,3.46143445 L48.2992338,10.2912773 L48.2992338,14.0620775 L46.3608305,14.0620775 Z M57.9621526,14.2438028 C56.8920285,14.2438028 55.9733421,14.0166461 55.2059854,13.5623329 C54.4387368,13.0979598 53.8481296,12.4568372 53.4341636,11.6390733 C53.0203059,10.8112497 52.8132688,9.85719179 52.8132688,8.77689973 C52.8132688,7.69664012 53.0203059,6.74258225 53.4341636,5.91472612 C53.8481296,5.08686999 54.4387368,4.44072834 55.2059854,3.97632283 C55.9733421,3.51191731 56.8920285,3.27970914 57.9621526,3.27970914 C59.2342297,3.27970914 60.2741745,3.59772843 61.0817704,4.23376701 C61.8995343,4.85971335 62.4094468,5.74309306 62.6112917,6.88392777 L60.4760194,6.88392777 C60.3448094,6.30846429 60.0621616,5.85920255 59.6279679,5.53613173 C59.2039422,5.20296866 58.6386467,5.03638713 57.931865,5.03638713 C56.9526036,5.03638713 56.185355,5.36955019 55.6300111,6.03587633 C55.0747754,6.70220246 54.7971035,7.61588053 54.7971035,8.77689973 C54.7971035,9.93788648 55.0747754,10.851597 55.6300111,11.5179231 C56.185355,12.1741895 56.9526036,12.5022686 57.931865,12.5022686 C58.6386467,12.5022686 59.2039422,12.3508308 59.6279679,12.0479553 C60.0621616,11.73502 60.3448094,11.3059103 60.4760194,10.7607344 L62.6112917,10.7607344 C62.4094468,11.8510862 61.8995343,12.7042216 61.0817704,13.3200325 C60.2741745,13.9358433 59.2342297,14.2438028 57.9621526,14.2438028 Z M65.0843785,14.0620775 L65.0843785,3.46143445 L67.0227818,3.46143445 L67.0227818,12.5476999 L71.7173522,12.5476999 L71.7173522,14.0620775 L65.0843785,14.0620775 Z M74.1824344,14.0620775 L74.1824344,3.46143445 L81.1031399,3.46143445 L81.1031399,5.02124335 L76.1208377,5.02124335 L76.1208377,7.92884829 L80.6488267,7.92884829 L80.6488267,9.44322586 L76.1208377,9.44322586 L76.1208377,12.5022686 L81.1031399,12.5022686 L81.1031399,14.0620775 L74.1824344,14.0620775 Z M88.0602987,14.0620775 L88.0602987,3.46143445 L94.9052853,3.46143445 L94.9052853,5.02124335 L89.998702,5.02124335 L89.998702,7.98942339 L93.9663712,7.98942339 L93.9663712,9.51894474 L89.998702,9.51894474 L89.998702,14.0620775 L88.0602987,14.0620775 Z M102.125621,14.2438028 C101.065557,14.2438028 100.136703,14.0115622 99.3391665,13.5471891 C98.5516902,13.082816 97.9307953,12.4416935 97.4764821,11.6239296 C97.0322286,10.7961059 96.8101559,9.84204802 96.8101559,8.76175596 C96.8101559,7.68149635 97.0322286,6.73249001 97.4764821,5.91472612 C97.9307953,5.08686999 98.5516902,4.44072834 99.3391665,3.97632283 C100.136703,3.51191731 101.065557,3.27970914 102.125621,3.27970914 C103.175518,3.27970914 104.099288,3.51191731 104.896932,3.97632283 C105.694468,4.44072834 106.315363,5.08686999 106.759617,5.91472612 C107.203762,6.73249001 107.425943,7.68149635 107.425943,8.76175596 C107.425943,9.84204802 107.203762,10.7961059 106.759617,11.6239296 C106.315363,12.4416935 105.694468,13.082816 104.896932,13.5471891 C104.099288,14.0115622 103.175518,14.2438028 102.125621,14.2438028 Z M102.125621,12.5022686 C103.13517,12.5022686 103.93779,12.1691055 104.533482,11.5027794 C105.139233,10.8364532 105.442108,9.92274271 105.442108,8.76175596 C105.442108,7.60073676 105.139233,6.68705868 104.533482,6.02073255 C103.93779,5.35440642 103.13517,5.02124335 102.125621,5.02124335 C101.115964,5.02124335 100.308368,5.35440642 99.7026171,6.02073255 C99.0968661,6.68705868 98.7939906,7.60073676 98.7939906,8.76175596 C98.7939906,9.92274271 99.0968661,10.8364532 99.7026171,11.5027794 C100.308368,12.1691055 101.115964,12.5022686 102.125621,12.5022686 Z M109.894054,14.0620775 L109.894054,3.46143445 L113.786004,3.46143445 C114.634055,3.46143445 115.330669,3.60782068 115.875845,3.90060395 C116.431838,4.18328416 116.845047,4.57198161 117.117635,5.06667468 C117.390223,5.5512755 117.526517,6.0913999 117.526517,6.68705868 C117.526517,7.33318951 117.355608,7.92379676 117.011628,8.45888044 C116.678465,8.99396412 116.153842,9.38265076 115.436676,9.62495117 L117.632523,14.0620775 L115.406388,14.0620775 L113.437697,9.88239536 L111.832457,9.88239536 L111.832457,14.0620775 L109.894054,14.0620775 Z M111.832457,8.45888044 L113.664854,8.45888044 C114.311709,8.45888044 114.785493,8.30239115 115.088369,7.98942339 C115.391244,7.67645564 115.542682,7.26252216 115.542682,6.74763379 C115.542682,6.24283766 115.391244,5.83900724 115.088369,5.53613173 C114.79631,5.23325621 114.316036,5.08181845 113.64971,5.08181845 L111.832457,5.08181845 L111.832457,8.45888044 Z M124.452631,14.0620775 L124.452631,3.46143445 L126.391034,3.46143445 L126.391034,12.5476999 L131.085604,12.5476999 L131.085604,14.0620775 L124.452631,14.0620775 Z M133.550795,14.0620775 L133.550795,3.46143445 L135.489198,3.46143445 L135.489198,14.0620775 L133.550795,14.0620775 Z M141.919894,14.2438028 C141.143235,14.2438028 140.456356,14.1125928 139.860341,13.8500646 C139.265407,13.5774766 138.79595,13.1937983 138.45197,12.6991376 C138.109071,12.1943091 137.932754,11.5835822 137.921937,10.8667408 L139.966347,10.8667408 C139.986899,11.3614014 140.163216,11.7804513 140.496379,12.1236742 C140.840359,12.4568372 141.309816,12.6234188 141.90475,12.6234188 C142.419639,12.6234188 142.828521,12.5022686 143.131396,12.2599681 C143.434272,12.0076079 143.58571,11.6744449 143.58571,11.260479 C143.58571,10.8263934 143.449416,10.4881464 143.176828,10.245846 C142.915057,10.0035456 142.561341,9.80667648 142.116763,9.65523872 C141.673267,9.50380097 141.198401,9.34227097 140.693248,9.1706379 C139.875485,8.88795769 139.250263,8.52450708 138.81542,8.08028605 C138.391394,7.63606502 138.179382,7.04545777 138.179382,6.30846429 C138.169646,5.68251795 138.315676,5.14744509 138.618551,4.70322406 C138.932244,4.24891079 139.356269,3.90060395 139.890628,3.65830354 C140.426069,3.40591088 141.041555,3.27970914 141.738169,3.27970914 C142.4456,3.27970914 143.066494,3.40591088 143.600853,3.65830354 C144.146029,3.91069619 144.570055,4.26405457 144.872931,4.71836784 C145.186623,5.17268111 145.353205,5.7128055 145.372675,6.33875184 L143.297978,6.33875184 C143.288243,5.96520898 143.142213,5.63708663 142.858808,5.35440642 C142.58622,5.06162315 142.203299,4.91523692 141.707881,4.91523692 C141.283856,4.90514468 140.925814,5.01115111 140.632673,5.23325621 C140.35035,5.44526907 140.208648,5.75823683 140.208648,6.17217031 C140.208648,6.52552868 140.320062,6.80820889 140.541811,7.02022175 C140.76464,7.22214236 141.067516,7.39376461 141.450437,7.53511012 C141.83444,7.67645564 142.27361,7.82789339 142.767946,7.98942339 C143.293651,8.1711487 143.772843,8.38316156 144.206604,8.62546198 C144.641447,8.86776239 144.989754,9.19083321 145.251525,9.59466362 C145.514378,9.98840179 145.645263,10.4982062 145.645263,11.124185 C145.645263,11.6794207 145.504642,12.1943091 145.221237,12.6688501 C144.938914,13.1433911 144.520297,13.5269613 143.964304,13.819777 C143.409393,14.1024248 142.727923,14.2438028 141.919894,14.2438028 Z M148.094228,14.0620775 L148.094228,3.46143445 L152.349629,3.46143445 C153.449716,3.46143445 154.288032,3.71887864 154.863496,4.23376701 C155.448694,4.73856314 155.741835,5.3897455 155.741835,6.18731408 C155.741835,6.85364022 155.560109,7.3887239 155.196659,7.79255431 C154.842943,8.18629248 154.409182,8.45382891 153.894294,8.59517442 C154.500045,8.71632463 154.99979,9.01920014 155.393528,9.50380097 C155.787266,9.978342 155.984135,10.5335777 155.984135,11.1696163 C155.984135,12.0076079 155.68126,12.6991376 155.075509,13.2443136 C154.469758,13.7894895 153.611971,14.0620775 152.501067,14.0620775 L148.094228,14.0620775 Z M150.032631,7.91370452 L152.061897,7.91370452 C152.607073,7.91370452 153.02569,7.78750278 153.318831,7.53511012 C153.611971,7.28271747 153.758,6.92430756 153.758,6.45990205 C153.758,6.01568102 153.611971,5.66737418 153.318831,5.41498152 C153.036507,5.1524858 152.607073,5.02124335 152.03161,5.02124335 L150.032631,5.02124335 L150.032631,7.91370452 Z M150.032631,12.4871248 L152.198191,12.4871248 C152.773655,12.4871248 153.218233,12.3559148 153.530843,12.0933866 C153.854271,11.8207987 154.015444,11.4422043 154.015444,10.9576034 C154.015444,10.4629428 153.848863,10.0741805 153.5157,9.79153271 C153.182537,9.5088525 152.733632,9.36750699 152.167904,9.36750699 L150.032631,9.36750699 L150.032631,12.4871248 Z M163.372134,14.2438028 C162.31207,14.2438028 161.382891,14.0115622 160.58568,13.5471891 C159.798203,13.082816 159.177308,12.4416935 158.722995,11.6239296 C158.278417,10.7961059 158.056669,9.84204802 158.056669,8.76175596 C158.056669,7.68149635 158.278417,6.73249001 158.722995,5.91472612 C159.177308,5.08686999 159.798203,4.44072834 160.58568,3.97632283 C161.382891,3.51191731 162.31207,3.27970914 163.372134,3.27970914 C164.422463,3.27970914 165.346234,3.51191731 166.143445,3.97632283 C166.940657,4.44072834 167.561552,5.08686999 168.00613,5.91472612 C168.450708,6.73249001 168.672456,7.68149635 168.672456,8.76175596 C168.672456,9.84204802 168.450708,10.7961059 168.00613,11.6239296 C167.561552,12.4416935 166.940657,13.082816 166.143445,13.5471891 C165.346234,14.0115622 164.422463,14.2438028 163.372134,14.2438028 Z M163.372134,12.5022686 C164.381359,12.5022686 165.183979,12.1691055 165.779995,11.5027794 C166.385746,10.8364532 166.688621,9.92274271 166.688621,8.76175596 C166.688621,7.60073676 166.385746,6.68705868 165.779995,6.02073255 C165.183979,5.35440642 164.381359,5.02124335 163.372134,5.02124335 C162.36291,5.02124335 161.554881,5.35440642 160.94913,6.02073255 C160.343379,6.68705868 160.040504,7.60073676 160.040504,8.76175596 C160.040504,9.92274271 160.343379,10.8364532 160.94913,11.5027794 C161.554881,12.1691055 162.36291,12.5022686 163.372134,12.5022686 Z M171.140891,14.0620775 L171.140891,3.46143445 L173.079294,3.46143445 L178.061597,10.9273159 L178.061597,3.46143445 L180,3.46143445 L180,14.0620775 L178.061597,14.0620775 L173.079294,6.6113398 L173.079294,14.0620775 L171.140891,14.0620775 Z" id="Shape" fill="#1D2127"></path>
            </g>
        </g>
    </g>
</svg>