<svg width="22" height="22" viewBox="0 0 22 22" fill="none" xmlns="http://www.w3.org/2000/svg">
<path d="M20.1668 1.83326C19.6196 1.28405 18.8845 0.962783 18.1098 0.934265C17.3351 0.905746 16.5784 1.1721 15.9924 1.6796C15.4063 2.1871 15.0346 2.89797 14.9521 3.66881C14.8696 4.43965 15.0825 5.21309 15.5479 5.83311L5.83317 15.5478C5.2433 15.1068 4.51424 14.8931 3.77962 14.9459C3.045 14.9987 2.35402 15.3145 1.83333 15.8355C1.41862 16.2509 1.13205 16.7767 1.00772 17.3504C0.883388 17.9241 0.926545 18.5214 1.13205 19.0712C1.33755 19.6211 1.69675 20.1003 2.16686 20.4518C2.63698 20.8033 3.19821 21.0123 3.78372 21.0539C4.36924 21.0955 4.95437 20.9679 5.46946 20.6864C5.98454 20.4049 6.40787 19.9813 6.68904 19.466C6.97021 18.9507 7.09737 18.3655 7.05539 17.78C7.01341 17.1945 6.80405 16.6335 6.45223 16.1636L16.1669 6.44889C16.7869 6.91427 17.5604 7.12718 18.3312 7.04469C19.1021 6.96219 19.8129 6.59043 20.3204 6.00438C20.8279 5.41834 21.0943 4.66163 21.0658 3.88692C21.0372 3.1122 20.716 2.37713 20.1668 1.82998V1.83326ZM5.54661 19.552C5.24071 19.858 4.85093 20.0664 4.42658 20.1509C4.00223 20.2353 3.56236 20.192 3.16261 20.0265C2.76286 19.861 2.42118 19.5806 2.18079 19.2208C1.94039 18.8611 1.81208 18.4381 1.81208 18.0055C1.81208 17.5728 1.94039 17.1498 2.18079 16.7901C2.42118 16.4303 2.76286 16.15 3.16261 15.9844C3.56236 15.8189 4.00223 15.7756 4.42658 15.86C4.85093 15.9445 5.24071 16.1529 5.54661 16.4589C5.95537 16.8689 6.1849 17.4243 6.1849 18.0033C6.1849 18.5822 5.95537 19.1376 5.54661 19.5476V19.552ZM19.5466 5.55201C19.1364 5.96211 18.5801 6.19248 18 6.19248C17.42 6.19248 16.8637 5.96211 16.4535 5.55201C16.1475 5.24611 15.9391 4.85634 15.8546 4.43199C15.7702 4.00764 15.8134 3.56777 15.979 3.16802C16.1445 2.76826 16.4249 2.42658 16.7847 2.18619C17.1444 1.9458 17.5674 1.81748 18 1.81748C18.4327 1.81748 18.8557 1.9458 19.2154 2.18619C19.5752 2.42658 19.8555 2.76826 20.0211 3.16802C20.1866 3.56777 20.2299 4.00764 20.1455 4.43199C20.061 4.85634 19.8526 5.24611 19.5466 5.55201Z" fill="#343330"/>
<path d="M5.54661 19.552C5.24071 19.858 4.85093 20.0664 4.42658 20.1509C4.00223 20.2353 3.56236 20.192 3.16261 20.0265C2.76286 19.861 2.42118 19.5806 2.18079 19.2208C1.94039 18.8611 1.81208 18.4381 1.81208 18.0055C1.81208 17.5728 1.94039 17.1498 2.18079 16.7901C2.42118 16.4303 2.76286 16.15 3.16261 15.9844C3.56236 15.8189 4.00223 15.7756 4.42658 15.86C4.85093 15.9445 5.24071 16.1529 5.54661 16.4589C5.95537 16.8689 6.1849 17.4243 6.1849 18.0033C6.1849 18.5822 5.95537 19.1376 5.54661 19.5476V19.552Z" fill="#F6B40A"/>
<path d="M19.5466 5.55201C19.1364 5.96211 18.5801 6.19248 18 6.19248C17.42 6.19248 16.8637 5.96211 16.4535 5.55201C16.1475 5.24611 15.9391 4.85634 15.8546 4.43199C15.7702 4.00764 15.8134 3.56777 15.979 3.16802C16.1445 2.76826 16.4249 2.42658 16.7847 2.18619C17.1444 1.9458 17.5674 1.81748 18 1.81748C18.4327 1.81748 18.8557 1.9458 19.2154 2.18619C19.5752 2.42658 19.8555 2.76826 20.0211 3.16802C20.1866 3.56777 20.2299 4.00764 20.1455 4.43199C20.061 4.85634 19.8526 5.24611 19.5466 5.55201Z" fill="#F6B40A"/>
</svg>
