<svg width="24" height="23" viewBox="0 0 24 23" fill="none" xmlns="http://www.w3.org/2000/svg">
<path d="M23.7447 8.7767C23.6672 8.53023 23.5176 8.31263 23.3153 8.15199C23.1129 7.99135 22.8671 7.89502 22.6094 7.87545L16.1071 7.31326C16.028 7.30591 15.9525 7.27718 15.8885 7.23017C15.8245 7.18316 15.7746 7.11963 15.744 7.04639L13.2032 0.99248C13.1039 0.754339 12.9364 0.550906 12.7217 0.407809C12.507 0.264713 12.2548 0.188354 11.9968 0.188354C11.7388 0.188354 11.4865 0.264713 11.2718 0.407809C11.0572 0.550906 10.8896 0.754339 10.7904 0.99248L8.25286 7.04639C8.22224 7.11963 8.17227 7.18316 8.1083 7.23017C8.04433 7.27718 7.96878 7.30591 7.88973 7.31326L1.39067 7.87545C1.13253 7.89661 0.886414 7.99368 0.683326 8.15444C0.480237 8.31519 0.329253 8.53244 0.249384 8.77883C0.169515 9.02522 0.164332 9.28974 0.234489 9.53907C0.304646 9.78839 0.447005 10.0114 0.64364 10.18L5.57645 14.4839C5.63805 14.5367 5.68377 14.6055 5.70849 14.6828C5.73321 14.76 5.73597 14.8427 5.71645 14.9214L4.23442 21.3209C4.17335 21.5734 4.18937 21.8385 4.28042 22.0818C4.37147 22.3251 4.53336 22.5355 4.7452 22.6859C4.95226 22.8388 5.20044 22.9261 5.45763 22.9364C5.71482 22.9467 5.9692 22.8797 6.18786 22.7439L11.7769 19.3533C11.844 19.3119 11.9213 19.2901 12 19.2901C12.0788 19.2901 12.1561 19.3119 12.2232 19.3533L17.8122 22.7439C18.0332 22.8763 18.2882 22.9408 18.5455 22.9293C18.8029 22.9178 19.0511 22.8309 19.2594 22.6793C19.4677 22.5277 19.6267 22.3182 19.7168 22.0768C19.8068 21.8355 19.8238 21.573 19.7657 21.322L18.2869 14.9192C18.2674 14.8405 18.2702 14.7579 18.2949 14.6806C18.3196 14.6033 18.3653 14.5345 18.4269 14.4817L23.3597 10.1778C23.5561 10.0091 23.6976 9.78563 23.7662 9.53603C23.8348 9.28643 23.8273 9.02203 23.7447 8.7767ZM22.7844 9.52045L17.8516 13.8244C17.671 13.981 17.5367 14.184 17.463 14.4115C17.3894 14.639 17.3793 14.8822 17.4338 15.115L18.9125 21.5156C18.9332 21.6005 18.928 21.6896 18.8976 21.7714C18.8672 21.8533 18.813 21.9242 18.7419 21.975C18.6737 22.0256 18.5918 22.0544 18.5069 22.0577C18.422 22.0611 18.3381 22.0387 18.2661 21.9936L12.6771 18.6029C12.4732 18.4785 12.2389 18.4126 12 18.4126C11.7612 18.4126 11.5269 18.4785 11.323 18.6029L5.73395 21.9936C5.66198 22.0387 5.57807 22.0611 5.49319 22.0577C5.40831 22.0544 5.3264 22.0256 5.25817 21.975C5.18713 21.9242 5.13292 21.8533 5.10251 21.7714C5.0721 21.6896 5.06689 21.6005 5.08755 21.5156L6.5663 15.1128C6.6208 14.88 6.61069 14.6368 6.53706 14.4093C6.46343 14.1819 6.32907 13.9788 6.14848 13.8222L1.21567 9.52045C1.14926 9.46347 1.10147 9.38788 1.07846 9.30346C1.05546 9.21903 1.05829 9.12965 1.08661 9.04685C1.11301 8.9654 1.16273 8.89349 1.22961 8.84002C1.29649 8.78655 1.37759 8.75389 1.46286 8.74607L7.9652 8.18389C8.20299 8.16269 8.43049 8.07704 8.62322 7.93615C8.81594 7.79527 8.96659 7.60449 9.05895 7.38435L11.5986 1.32935C11.6329 1.25172 11.6889 1.18571 11.76 1.13938C11.8311 1.09304 11.9141 1.06837 11.999 1.06837C12.0838 1.06837 12.1668 1.09304 12.2379 1.13938C12.309 1.18571 12.365 1.25172 12.3993 1.32935L14.939 7.38435C15.0313 7.60449 15.182 7.79527 15.3747 7.93615C15.5674 8.07704 15.7949 8.16269 16.0327 8.18389L22.535 8.74607C22.6203 8.75389 22.7014 8.78655 22.7683 8.84002C22.8352 8.89349 22.8849 8.9654 22.9113 9.04685C22.9399 9.12944 22.943 9.21869 22.9204 9.30309C22.8978 9.3875 22.8505 9.46321 22.7844 9.52045Z" fill="#343330"/>
<path d="M22.7844 9.52045L17.8516 13.8244C17.671 13.981 17.5367 14.184 17.463 14.4115C17.3894 14.639 17.3793 14.8822 17.4338 15.115L18.9125 21.5156C18.9332 21.6005 18.928 21.6896 18.8976 21.7714C18.8672 21.8533 18.813 21.9242 18.7419 21.975C18.6737 22.0256 18.5918 22.0544 18.5069 22.0577C18.422 22.0611 18.3381 22.0387 18.2661 21.9936L12.6771 18.6029C12.4732 18.4785 12.2389 18.4126 12 18.4126C11.7612 18.4126 11.5269 18.4785 11.323 18.6029L5.73395 21.9936C5.66198 22.0387 5.57807 22.0611 5.49319 22.0577C5.40831 22.0544 5.3264 22.0256 5.25817 21.975C5.18713 21.9242 5.13292 21.8533 5.10251 21.7714C5.0721 21.6896 5.06689 21.6005 5.08755 21.5156L6.5663 15.1128C6.6208 14.88 6.61069 14.6368 6.53706 14.4093C6.46343 14.1819 6.32907 13.9788 6.14848 13.8222L1.21567 9.52045C1.14926 9.46347 1.10147 9.38788 1.07846 9.30346C1.05546 9.21903 1.05829 9.12965 1.08661 9.04685C1.11301 8.9654 1.16273 8.89349 1.22961 8.84002C1.29649 8.78655 1.37759 8.75389 1.46286 8.74607L7.9652 8.18389C8.20299 8.16269 8.43049 8.07704 8.62322 7.93615C8.81594 7.79527 8.96659 7.60449 9.05895 7.38435L11.5986 1.32935C11.6329 1.25172 11.6889 1.18571 11.76 1.13938C11.8311 1.09304 11.9141 1.06837 11.999 1.06837C12.0838 1.06837 12.1668 1.09304 12.2379 1.13938C12.309 1.18571 12.365 1.25172 12.3993 1.32935L14.939 7.38435C15.0313 7.60449 15.182 7.79527 15.3747 7.93615C15.5674 8.07704 15.7949 8.16269 16.0327 8.18389L22.535 8.74607C22.6203 8.75389 22.7014 8.78655 22.7683 8.84002C22.8352 8.89349 22.8849 8.9654 22.9113 9.04685C22.9399 9.12944 22.943 9.21869 22.9204 9.30309C22.8978 9.3875 22.8505 9.46321 22.7844 9.52045Z" fill="#F6B40A"/>
</svg>
