<svg width="28" height="20" viewBox="0 0 28 20" fill="none" xmlns="http://www.w3.org/2000/svg">
<path d="M12.6743 18.7344C12.65 18.8284 12.5952 18.9117 12.5183 18.9711C12.4415 19.0305 12.3471 19.0627 12.25 19.0625C12.2131 19.0626 12.1764 19.0582 12.1406 19.0494L8.64058 18.1744C8.59189 18.1623 8.54565 18.142 8.50386 18.1142L5.87886 16.3642C5.83103 16.3323 5.78995 16.2913 5.75796 16.2436C5.72598 16.1958 5.70371 16.1422 5.69244 16.0858C5.68116 16.0295 5.6811 15.9714 5.69226 15.915C5.70341 15.8587 5.72557 15.805 5.75745 15.7572C5.82185 15.6606 5.92198 15.5935 6.03582 15.5708C6.09219 15.5595 6.15023 15.5594 6.20662 15.5706C6.26301 15.5817 6.31665 15.6039 6.36448 15.6358L8.92605 17.3442L12.3593 18.2006C12.4151 18.2149 12.4675 18.24 12.5136 18.2746C12.5596 18.3092 12.5984 18.3525 12.6276 18.4021C12.6569 18.4517 12.6761 18.5066 12.6841 18.5636C12.6921 18.6206 12.6888 18.6786 12.6743 18.7344ZM27.196 8.15234C27.1423 8.31584 27.0566 8.46705 26.944 8.59716C26.8313 8.72728 26.6939 8.83372 26.5398 8.91031L23.8864 10.2381L17.8117 16.3128C17.7577 16.3653 17.691 16.4029 17.6182 16.422C17.5454 16.4412 17.4689 16.4413 17.396 16.4222L10.396 14.6722C10.3424 14.6592 10.2919 14.6358 10.2473 14.6033L4.14855 10.2512L1.4623 8.90702C1.3081 8.82998 1.17058 8.72331 1.05761 8.59311C0.94464 8.46291 0.858422 8.31173 0.803881 8.14821C0.74934 7.98469 0.727544 7.81203 0.739739 7.64008C0.751933 7.46813 0.797879 7.30027 0.874953 7.14609L3.59183 1.71234C3.66888 1.55814 3.77555 1.42062 3.90574 1.30765C4.03594 1.19468 4.18712 1.10846 4.35064 1.05392C4.51416 0.99938 4.68683 0.977584 4.85877 0.989779C5.03072 1.00197 5.19858 1.04792 5.35277 1.12499L7.9187 2.40796L13.8796 0.703899C13.9584 0.682034 14.0415 0.682034 14.1203 0.703899L20.0812 2.40796L22.6471 1.12499C22.8013 1.04792 22.9692 1.00197 23.1411 0.989779C23.3131 0.977584 23.4857 0.99938 23.6493 1.05392C23.8128 1.10846 23.964 1.19468 24.0942 1.30765C24.2244 1.42062 24.331 1.55814 24.4081 1.71234L27.125 7.14718C27.2026 7.30114 27.2488 7.46899 27.261 7.64098C27.2732 7.81297 27.2511 7.98568 27.196 8.14906V8.15234ZM1.85277 8.12499L4.17917 9.28765L7.28761 3.07077L4.9623 1.90812C4.91095 1.88233 4.85502 1.86691 4.79772 1.86274C4.74041 1.85857 4.68284 1.86573 4.6283 1.8838C4.57376 1.90188 4.52331 1.93053 4.47984 1.96811C4.43637 2.00568 4.40073 2.05145 4.37495 2.10281L1.65808 7.53765C1.63229 7.589 1.61687 7.64492 1.6127 7.70223C1.60853 7.75954 1.61569 7.81711 1.63376 7.87165C1.65184 7.92619 1.68049 7.97663 1.71807 8.0201C1.75564 8.06357 1.80141 8.09922 1.85277 8.12499ZM21.2187 11.6611L17.524 8.7014C15.4973 10.5345 12.845 10.8353 10.6706 9.44624C10.5044 9.34091 10.3641 9.19956 10.2599 9.03267C10.1558 8.86578 10.0904 8.67761 10.0688 8.48207C10.0472 8.28654 10.0698 8.08864 10.1349 7.90302C10.2001 7.71739 10.3062 7.54879 10.4453 7.40968L15.4437 2.56109C15.5257 2.48146 15.6356 2.4371 15.75 2.43749H17.0012L14 1.57999L8.18011 3.24249L4.93386 9.73609L10.687 13.8453L17.3654 15.5155L21.2187 11.6611ZM23.0912 9.78859L19.8548 3.31249H15.9271L11.061 8.03312C11.0157 8.07853 10.9813 8.1336 10.9602 8.19421C10.9392 8.25482 10.9322 8.3194 10.9396 8.38312C10.9466 8.44948 10.9684 8.51342 11.0035 8.57022C11.0385 8.62702 11.0858 8.67521 11.142 8.71124C12.6678 9.68577 15.0576 9.96249 17.1893 7.81437C17.2655 7.73778 17.3672 7.69205 17.4751 7.68599C17.5829 7.67993 17.6892 7.71397 17.7734 7.78156L21.8432 11.0409L23.0912 9.78859ZM26.3407 7.53765L23.625 2.10281C23.5992 2.05145 23.5635 2.00568 23.5201 1.96811C23.4766 1.93053 23.4261 1.90188 23.3716 1.8838C23.3171 1.86573 23.2595 1.85857 23.2022 1.86274C23.1449 1.86691 23.089 1.88233 23.0376 1.90812L20.7123 3.07077L23.8207 9.28765L26.1471 8.12499C26.1985 8.09922 26.2443 8.06357 26.2818 8.0201C26.3194 7.97663 26.3481 7.92619 26.3661 7.87165C26.3842 7.81711 26.3914 7.75954 26.3872 7.70223C26.383 7.64492 26.3676 7.589 26.3418 7.53765H26.3407Z" fill="#343330"/>
<path d="M1.85277 8.12499L4.17917 9.28765L7.28761 3.07077L4.9623 1.90812C4.91095 1.88233 4.85502 1.86691 4.79772 1.86274C4.74041 1.85857 4.68284 1.86573 4.6283 1.8838C4.57376 1.90188 4.52331 1.93053 4.47984 1.96811C4.43637 2.00568 4.40073 2.05145 4.37495 2.10281L1.65808 7.53765C1.63229 7.589 1.61687 7.64492 1.6127 7.70223C1.60853 7.75954 1.61569 7.81711 1.63376 7.87165C1.65184 7.92619 1.68049 7.97663 1.71807 8.0201C1.75564 8.06357 1.80141 8.09922 1.85277 8.12499Z" fill="#F6B40A"/>
<path d="M26.3407 7.53765L23.625 2.10281C23.5992 2.05145 23.5635 2.00568 23.5201 1.96811C23.4766 1.93053 23.4261 1.90188 23.3716 1.8838C23.3171 1.86573 23.2595 1.85857 23.2022 1.86274C23.1449 1.86691 23.089 1.88233 23.0376 1.90812L20.7123 3.07077L23.8207 9.28765L26.1471 8.12499C26.1985 8.09922 26.2443 8.06357 26.2818 8.0201C26.3194 7.97663 26.3481 7.92619 26.3661 7.87165C26.3842 7.81711 26.3914 7.75954 26.3872 7.70223C26.383 7.64492 26.3676 7.589 26.3418 7.53765H26.3407Z" fill="#F6B40A"/>
</svg>
