<svg width="25" height="22" viewBox="0 0 25 22" fill="none" xmlns="http://www.w3.org/2000/svg">
<path d="M20.625 15.0625C19.5808 15.0625 18.5792 14.6477 17.8408 13.9092C17.1024 13.1708 16.6875 12.1693 16.6875 11.125V8.46609C16.6872 8.13814 16.564 7.82221 16.3424 7.58051C16.1207 7.33881 15.8166 7.18885 15.4899 7.16016C12.6341 6.92937 10.7025 5.03719 10.568 2.34C10.5527 2.0142 10.4166 1.70578 10.1863 1.47484L9.28614 0.574687C9.04484 0.330756 8.71716 0.191687 8.37407 0.187593C8.03097 0.183499 7.70007 0.314709 7.45302 0.552812L7.44536 0.560468L0.445361 7.57359C0.323001 7.69553 0.225915 7.84042 0.159671 7.99996C0.0934262 8.15949 0.0593262 8.33054 0.0593262 8.50328C0.0593262 8.67602 0.0934262 8.84707 0.159671 9.0066C0.225915 9.16614 0.323001 9.31103 0.445361 9.43297L12.178 20.808C12.2996 20.93 12.4442 21.0268 12.6034 21.0927C12.7626 21.1586 12.9332 21.1923 13.1055 21.1919H23.25C23.5981 21.1919 23.932 21.0536 24.1781 20.8075C24.4243 20.5613 24.5625 20.2275 24.5625 19.8794V19.0044C24.5631 18.4869 24.4617 17.9744 24.2641 17.4962C24.0665 17.018 23.7765 16.5834 23.4108 16.2173C23.0451 15.8512 22.6109 15.5608 22.1329 15.3626C21.6549 15.1645 21.1425 15.0625 20.625 15.0625ZM23.6875 19.875C23.6875 19.991 23.6415 20.1023 23.5594 20.1844C23.4774 20.2664 23.3661 20.3125 23.25 20.3125H13.1121C13.0536 20.3126 12.9956 20.3009 12.9417 20.2781C12.8878 20.2554 12.839 20.2221 12.7982 20.1802L1.06552 8.81062C0.983699 8.72861 0.937751 8.61749 0.937751 8.50164C0.937751 8.38579 0.983699 8.27467 1.06552 8.19266L8.06552 1.18281C8.14845 1.10573 8.25804 1.06381 8.37124 1.06585C8.48444 1.06789 8.59245 1.11373 8.67255 1.19375L9.5727 2.09281C9.64967 2.17022 9.69493 2.2736 9.69958 2.38266C9.85489 5.54687 12.1058 7.76391 15.4232 8.03187C15.5313 8.04301 15.6313 8.09398 15.7039 8.17485C15.7765 8.25572 15.8164 8.36071 15.8158 8.46937V10.6875H13.625C13.509 10.6875 13.3977 10.7336 13.3157 10.8156C13.2336 10.8977 13.1875 11.009 13.1875 11.125C13.1875 11.241 13.2336 11.3523 13.3157 11.4344C13.3977 11.5164 13.509 11.5625 13.625 11.5625H15.8333C15.9206 12.5266 16.2978 13.4418 16.915 14.1875H14.5C14.384 14.1875 14.2727 14.2336 14.1907 14.3156C14.1086 14.3977 14.0625 14.509 14.0625 14.625C14.0625 14.741 14.1086 14.8523 14.1907 14.9344C14.2727 15.0164 14.384 15.0625 14.5 15.0625H17.8633C18.6714 15.6325 19.6362 15.9382 20.625 15.9375C21.4373 15.9375 22.2162 16.2602 22.7906 16.8345C23.3649 17.4088 23.6875 18.1878 23.6875 19V19.875ZM4.00005 17.6875H0.500049C0.384016 17.6875 0.272737 17.6414 0.19069 17.5594C0.108642 17.4773 0.0625487 17.366 0.0625487 17.25C0.0625487 17.134 0.108642 17.0227 0.19069 16.9406C0.272737 16.8586 0.384016 16.8125 0.500049 16.8125H4.00005C4.11608 16.8125 4.22736 16.8586 4.30941 16.9406C4.39146 17.0227 4.43755 17.134 4.43755 17.25C4.43755 17.366 4.39146 17.4773 4.30941 17.5594C4.22736 17.6414 4.11608 17.6875 4.00005 17.6875ZM7.93755 20.75C7.93755 20.866 7.89145 20.9773 7.80941 21.0594C7.72736 21.1414 7.61608 21.1875 7.50005 21.1875H2.25005C2.13402 21.1875 2.02274 21.1414 1.94069 21.0594C1.85864 20.9773 1.81255 20.866 1.81255 20.75C1.81255 20.634 1.85864 20.5227 1.94069 20.4406C2.02274 20.3586 2.13402 20.3125 2.25005 20.3125H7.50005C7.61608 20.3125 7.72736 20.3586 7.80941 20.4406C7.89145 20.5227 7.93755 20.634 7.93755 20.75Z" fill="#343330"/>
<path d="M23.6875 19.875C23.6875 19.991 23.6415 20.1023 23.5594 20.1844C23.4774 20.2664 23.3661 20.3125 23.25 20.3125H13.1121C13.0536 20.3126 12.9956 20.3009 12.9417 20.2781C12.8878 20.2554 12.839 20.2221 12.7982 20.1802L1.06552 8.81062C0.983699 8.72861 0.937751 8.61749 0.937751 8.50164C0.937751 8.38579 0.983699 8.27467 1.06552 8.19266L8.06552 1.18281C8.14845 1.10573 8.25804 1.06381 8.37124 1.06585C8.48444 1.06789 8.59245 1.11373 8.67255 1.19375L9.5727 2.09281C9.64967 2.17022 9.69493 2.2736 9.69958 2.38266C9.85489 5.54687 12.1058 7.76391 15.4232 8.03187C15.5313 8.04301 15.6313 8.09398 15.7039 8.17485C15.7765 8.25572 15.8164 8.36071 15.8158 8.46937V10.6875H13.625C13.509 10.6875 13.3977 10.7336 13.3157 10.8156C13.2336 10.8977 13.1875 11.009 13.1875 11.125C13.1875 11.241 13.2336 11.3523 13.3157 11.4344C13.3977 11.5164 13.509 11.5625 13.625 11.5625H15.8333C15.9206 12.5266 16.2978 13.4418 16.915 14.1875H14.5C14.384 14.1875 14.2727 14.2336 14.1907 14.3156C14.1086 14.3977 14.0625 14.509 14.0625 14.625C14.0625 14.741 14.1086 14.8523 14.1907 14.9344C14.2727 15.0164 14.384 15.0625 14.5 15.0625H17.8633C18.6714 15.6325 19.6362 15.9382 20.625 15.9375C21.4373 15.9375 22.2162 16.2602 22.7906 16.8345C23.3649 17.4088 23.6875 18.1878 23.6875 19V19.875Z" fill="#F6B40A"/>
</svg>
