<?xml version="1.0" encoding="UTF-8"?>
<svg width="170px" height="170px" viewBox="0 0 170 170" version="1.1" xmlns="http://www.w3.org/2000/svg" xmlns:xlink="http://www.w3.org/1999/xlink">
    <title>favicon</title>
    <g id="assets" stroke="none" stroke-width="1" fill="none" fill-rule="evenodd">
        <g id="admin-assets" transform="translate(-58, -113)" fill-rule="nonzero">
            <g id="logo-icon" transform="translate(75, 152)">
                <path d="M79.5417657,23.3341296 C81.969699,20.8608716 83.4788886,17.4448601 83.4788886,13.674091 C83.4788886,6.12242216 77.4433551,0 69.9984688,0 C65.2920511,0 61.1548871,2.45302114 58.7466149,6.16299388 C58.1070468,6.81168817 4.44577006,73.9049669 3.94613275,74.6754866 C1.51788094,77.1487446 0.00897208332,80.5646336 0.00897208332,84.3351577 C0.00897208332,91.8872308 6.04461682,98.0097387 13.4892398,98.0097387 C18.1958412,98.0097387 22.3328827,95.556693 24.7411549,91.8461936 C25.3806618,91.1975605 79.0419691,24.1045268 79.5417657,23.3341296 L79.5417657,23.3341296 Z" id="Path" fill="#1D2127"></path>
                <path d="M110.590402,55.1623508 C113.028748,52.6890315 114.537325,49.2730812 114.537325,45.4921447 C114.537325,37.9405004 108.501792,31.8180538 101.056905,31.8180538 C96.3504876,31.8180538 92.213691,34.2710994 89.7955577,37.9810476 C89.1456996,38.6399094 60.9661159,73.8743421 60.4564581,74.6546617 C58.0182349,77.1279197 56.5092902,80.5438088 56.5092902,84.3247453 C56.5092902,91.8768183 62.5450075,97.9993263 69.9898938,97.9993263 C74.6963115,97.9993263 78.833108,95.5462806 81.2512414,91.8357811 C81.9010994,91.1773482 110.080806,55.9428541 110.590402,55.1623508 L110.590402,55.1623508 Z" id="Path" fill="#FDDB30"></path>
                <path d="M140,13.674091 C140,21.2257353 133.964466,27.348182 126.51958,27.348182 C119.075306,27.348182 113.039773,21.2257353 113.039773,13.674091 C113.039773,6.12242216 119.075306,0 126.51958,0 C133.964466,0 140,6.12242216 140,13.674091 Z" id="Path" fill="#1D2127"></path>
                <path d="M26.9605334,13.674091 C26.9605334,21.2257353 20.9248774,27.348182 13.4802973,27.348182 C6.03564988,27.348182 0,21.2257353 0,13.674091 C0,6.12242216 6.03564988,0 13.4802973,0 C20.9248774,0 26.9605334,6.12242216 26.9605334,13.674091 Z" id="Path" fill="#FDDB30"></path>
            </g>
        </g>
    </g>
</svg>